<svg id="Camada_1" data-name="Camada 1" xmlns="http://www.w3.org/2000/svg" viewBox="0 0 682.66 512"><defs><style>.cls-1{fill:#072d2c;}</style></defs><title>Basico-Icon-L</title><path class="cls-1" d="M405.33,15a6.34,6.34,0,0,1,6.34,6.33V170.67a15,15,0,0,0,28.42,6.71l48-96A241,241,0,0,1,625,298.67V369H57.67V298.67A241,241,0,0,1,194.58,81.36l48,96A15,15,0,0,0,271,170.66V21.33A6.34,6.34,0,0,1,277.33,15h128m256,426.67a6.32,6.32,0,0,1,6.33,6.33v42.67a6.34,6.34,0,0,1-6.33,6.33h-640A6.34,6.34,0,0,1,15,490.67V448a6.34,6.34,0,0,1,6.33-6.33h640M405.33,0h-128A21.33,21.33,0,0,0,256,21.33V170.66L201.59,61.84C108.37,100.11,42.67,191.67,42.67,298.67V384H640V298.67c0-107-65.71-198.56-158.92-236.83L426.67,170.67V21.33A21.33,21.33,0,0,0,405.33,0Zm256,426.67h-640A21.33,21.33,0,0,0,0,448v42.67A21.33,21.33,0,0,0,21.33,512h640a21.33,21.33,0,0,0,21.33-21.33V448a21.32,21.32,0,0,0-21.33-21.33Z" transform="translate(0)"/></svg>