<?xml version="1.0" encoding="utf-8"?>
<!-- Generator: Adobe Illustrator 24.0.1, SVG Export Plug-In . SVG Version: 6.00 Build 0)  -->
<svg version="1.1" id="Camada_1" xmlns="http://www.w3.org/2000/svg" xmlns:xlink="http://www.w3.org/1999/xlink" x="0px" y="0px"
	 viewBox="0 0 682.67 512" style="enable-background:new 0 0 682.67 512;" xml:space="preserve">
<style type="text/css">
	.st0{fill:#FCFCFC;}
</style>
<path class="st0" d="M640,298.67c0-107-65.71-198.56-158.92-236.83l-54.41,108.83V21.33C426.67,9.55,417.12,0,405.33,0h-128
	C265.55,0,256,9.55,256,21.33v149.33L201.59,61.84C108.37,100.11,42.67,191.67,42.67,298.67V384H640V298.67z M661.33,426.67h-640
	C9.55,426.67,0,436.21,0,448v42.67C0,502.45,9.55,512,21.33,512h640c11.79,0,21.33-9.55,21.33-21.33V448
	C682.67,436.21,673.12,426.67,661.33,426.67z"/>
</svg>
