<?xml version="1.0" encoding="utf-8"?>
<!-- Generator: Adobe Illustrator 24.0.1, SVG Export Plug-In . SVG Version: 6.00 Build 0)  -->
<svg version="1.1" id="Camada_1" xmlns="http://www.w3.org/2000/svg" xmlns:xlink="http://www.w3.org/1999/xlink" x="0px" y="0px"
	 viewBox="0 0 1920 61" style="enable-background:new 0 0 1920 61;" xml:space="preserve">
<style type="text/css">
	.st0{fill:#072D2C;}
	.st1{fill:#839695;}
	.st2{fill:#C0C9C9;}
</style>
<path class="st0" d="M1920.78,12.36c-0.99,18.94,2.39,49.33-2.04,48.64c-340.75-0.18-684.34-0.1-1025.54-0.11
	c-297.45-0.08-592.86,0.22-891-0.01c-2.29-0.33-2.49-1.16-2.82-3.51c0.14-15.77,0.14-31.33,0.09-46.98c2.31-1.78,4.44-2.32,7.49-1.8
	c17.48,2.04,35.21,1.33,53.01,2.51c298.06,13.27,595.62,9.22,893.3-5.55C1345.57-5.86,1910.31,4.69,1920.78,12.36z"/>
<path class="st1" d="M1360.07,1.29c-19.71,0.02-39.41,0.04-59.12,0.06c-0.33-0.21-0.43-0.41-0.31-0.6c0.12-0.18,0.24-0.27,0.36-0.27
	c19.66,0,39.32,0,58.98,0c0.34,0.15,0.46,0.32,0.38,0.51C1360.27,1.19,1360.17,1.29,1360.07,1.29z"/>
<path class="st2" d="M1360.07,1.29c0-0.27-0.03-0.54-0.08-0.81c18.99,0,37.99,0,56.98,0c-0.03,0.29-0.01,0.57,0.05,0.85
	C1398.03,1.32,1379.05,1.3,1360.07,1.29z"/>
<path class="st2" d="M1301.01,0.48c0.03,0.29,0.01,0.58-0.06,0.87c-17.99-0.01-35.98-0.02-53.98-0.03c0.03-0.28,0.04-0.56,0.05-0.83
	C1265.02,0.48,1283.01,0.48,1301.01,0.48z"/>
</svg>
