<?xml version="1.0" encoding="utf-8"?>
<!-- Generator: Adobe Illustrator 24.0.1, SVG Export Plug-In . SVG Version: 6.00 Build 0)  -->
<svg version="1.1" id="Camada_1" xmlns="http://www.w3.org/2000/svg" xmlns:xlink="http://www.w3.org/1999/xlink" x="0px" y="0px"
	 viewBox="0 0 1080 1080" style="enable-background:new 0 0 1080 1080;" xml:space="preserve">
<style type="text/css">
	.st0{fill-rule:evenodd;clip-rule:evenodd;fill:#FCFCFC;}
</style>
<path class="st0" d="M537.9,1080h0.5h-0.2H537.9L537.9,1080z M541.7,1080h-0.2h0.5H541.7z M536.3,1080h0.5h-0.3H536.3z M543.5,1080
	h-0.3h0.5H543.5z M534.7,1080h0.3H534.7L534.7,1080L534.7,1080z M545.2,1080h-0.3H545.2L545.2,1080L545.2,1080z M547,1080L547,1080
	h0.4H547L547,1080z M532.7,1080h0.5h-0.1H532.7L532.7,1080z M548.7,1079.9h-0.3h0.6H548.7L548.7,1079.9z M531,1079.9h0.6h-0.3H531
	L531,1079.9z M550.5,1079.9h-0.4H550.5L550.5,1079.9z M529.4,1079.9h0.5H529.4L529.4,1079.9L529.4,1079.9z M527.4,1079.9h0.5h-0.1
	H527.4L527.4,1079.9z M552.2,1079.9L552.2,1079.9h0.4H552.2z M525.7,1079.8h0.7h-0.3H525.7z M553.9,1079.8h-0.3h0.7H553.9z
	 M555.7,1079.8h-0.4h0.7H555.7L555.7,1079.8z M524.1,1079.8h0.7h-0.4H524.1L524.1,1079.8z M522.6,1079.7h0.5H522.6h-0.4H522.6z
	 M557.4,1079.7H557H557.4h0.4H557.4z M559.1,1079.7h-0.2h0.7H559.1z M520.4,1079.6h0.7h-0.2H520.4z M518.8,1079.6h0.8h-0.4H518.8z
	 M560.9,1079.6h-0.4h0.8H560.9z M517.2,1079.5h0.7h-0.6H517.2L517.2,1079.5z M562.6,1079.5H562h0.7H562.6L562.6,1079.5z
	 M515.1,1079.4h0.8h-0.2H515.1z M564.3,1079.5h-0.2h0.8H564.3L564.3,1079.5z M513.5,1079.4h0.8h-0.4H513.5z M566,1079.4h-0.4h0.8
	H566z M512,1079.3h0.8h-0.6H512z M567.8,1079.3h-0.6h0.8H567.8z M569.5,1079.2h-0.8H569.5h0.7H569.5L569.5,1079.2z M510.6,1079.2
	h0.7H510.6h-0.8H510.6L510.6,1079.2z M571.2,1079.1h-0.3h0.9H571.2z M508.3,1079.1h0.9h-0.3H508.3z M506.7,1079l0.9,0.1h-0.5
	L506.7,1079L506.7,1079z M572.9,1079h-0.5l0.9-0.1L572.9,1079L572.9,1079z M505.3,1078.9h0.8H505.3h-0.7H505.3L505.3,1078.9z
	 M574.7,1078.9H574H574.7h0.7H574.7L574.7,1078.9z M576.4,1078.8h-0.3l0.8-0.1L576.4,1078.8L576.4,1078.8z M503.1,1078.8l0.8,0.1
	h-0.3L503.1,1078.8z M501.5,1078.6l0.8,0.1h-0.4L501.5,1078.6L501.5,1078.6z M578.1,1078.7h-0.4l0.8-0.1L578.1,1078.7z M500,1078.5
	l0.7,0.1h-0.6L500,1078.5L500,1078.5z M579.8,1078.6h-0.6l0.7-0.1L579.8,1078.6L579.8,1078.6z M498,1078.4h0.6h-0.2H498z
	 M581.5,1078.4h-0.2h0.6H581.5z M583.2,1078.3h-0.3l0.7-0.1L583.2,1078.3z M496.4,1078.3l0.7,0.1h-0.3L496.4,1078.3L496.4,1078.3z
	 M494.9,1078.1h0.6h-0.4H494.9z M584.9,1078.2h-0.4h0.6H584.9z M493.2,1078h0.2l0,0H493.2L493.2,1078z M586.7,1078L586.7,1078
	L586.7,1078L586.7,1078L586.7,1078z M588.4,1077.9h-0.2h0.4H588.4L588.4,1077.9z M491.4,1077.8h0.4h-0.2H491.4L491.4,1077.8z
	 M489.8,1077.7h0.3H489.8L489.8,1077.7z M590.1,1077.7h-0.2H590.1L590.1,1077.7z M455.6,1073.4C197.6,1032.9,0,809.3,0,540
	C0,242,242,0,540,0s540,242,540,540c0,269.3-197.6,492.9-455.6,533.4V696.1h125.8L774.1,540H624.4V438.7c0-42.7,20.9-84.3,88-84.3
	h68.1V221.5c0,0-61.8-10.5-120.9-10.5c-123.3,0-204,74.8-204,210.1v119H318.5v156.1h137.1V1073.4z"/>
</svg>
