<svg id="Camada_1" data-name="Camada 1" xmlns="http://www.w3.org/2000/svg" viewBox="0 0 2999.56 1256.35"><defs><style>.cls-1,.cls-2,.cls-3{fill:#072d2c;}.cls-2,.cls-3,.cls-4{stroke:#000;stroke-miterlimit:10;}.cls-2{stroke-width:6px;}.cls-3,.cls-4{stroke-width:10px;}.cls-4{fill:#010101;}</style></defs><title>Logo</title><path class="cls-1" d="M1379.3,698.37l-.17-.08a3,3,0,0,0-1.35-.34c-14.12-.26-29.2-.38-46.1-.38-15.73,0-31.63.11-47,.21-15.74.1-32,.21-48.5.21-28,0-51.87-.32-75.23-1-7.6-1.12-9.82-3.2-10.74-15.24-.5-40.42-.41-73.82-.31-106.12.06-21,.13-42.8,0-65.92,0-14.88,0-29.93,0-45.07,0-42.55-.08-86.54.24-129.11.06-5.88-.43-13-4.85-16.26-2.22-1.67-5.13-1.89-7.41-1.89-1,0-2.07.05-3.08.09s-1.89.09-2.76.09c-2,0-3.18-.24-3.66-.73a3.44,3.44,0,0,1-.5-2.3c.75-7.51.34-17.35,0-26.87-.57-13.53-1.26-30.36,2.41-34.19a1.49,1.49,0,0,1,1.18-.52h.43c7.09.24,14.49.36,22.63.36,13.58,0,27.29-.33,40.55-.66s26.75-.66,40.11-.66c33.36,0,59,2.18,83.13,7,27.74,8.57,45.91,26.05,55.54,53.44,8.91,25.34,9.55,55.82,8.92,85v.1c.7,58.28.53,115.14.37,170.13-1.12,8.54-.61,26.72,0,47.74.51,18.2,1.1,38.82.59,55C1382.9,694.1,1380,697.83,1379.3,698.37Zm-115.07-66.09c5.17,0,10.5.41,15.66.8s9.93.77,14.56.77c9.94,0,16.54-1.81,21.4-5.85a3,3,0,0,0,1.07-2c2.78-25,2.13-50.52,1.51-75.22-.42-16.91-.86-34.41-.18-51.39v-.16c-.42-26.92-.14-49.69.11-69.78.66-53.7,1-83.28-14.21-98.71-9.52-9.63-24.41-13.56-51.4-13.56-8.33,0-18.3.38-30.46,1.16a2.93,2.93,0,0,0-.92.21c-6.31,2.49-7,8.55-7.26,15.63v.14c.4,33.63.33,69.11.27,103.42q0,18.45,0,36.63c.85,46.93.16,79.28-.34,102.91-.72,33.81-1,46.47,4.81,52.39,3.3,3.37,8.11,3.84,12.82,3.84,2.39,0,5.07-.14,8.17-.29,4.14-.2,8.83-.43,14.38-.43h.64l.39,0A70.44,70.44,0,0,1,1264.23,632.28Z" transform="translate(-31.44 -9.31)"/><path d="M1235.13,255c33.07,0,58.5,2.15,82.38,6.95,26.69,8.28,44.18,25.14,53.45,51.52,8.75,24.89,9.37,55,8.75,83.93a1.33,1.33,0,0,0,0,.2c.7,58.19.53,115,.37,169.89-1.12,8.86-.61,27,0,48,.49,17.12,1,36.54.66,52.14-.43,17.91-2,24.74-2.92,27.28-14.13-.26-29.22-.38-46.13-.38-15.75,0-31.66.11-47,.21-15.73.1-32,.21-48.49.21-27.85,0-51.68-.32-74.94-1-4-.62-5.22-1.58-5.83-2.44-1.4-2-1.9-6.31-2.18-9.94-.5-40.36-.41-73.73-.31-106,.06-21,.13-42.79,0-65.9,0-14.9,0-30,0-45.13,0-42.52-.08-86.49.24-129,.07-6.59-.56-14.67-6-18.69-3-2.22-6.48-2.5-9.22-2.5-1.1,0-2.18.05-3.22.1s-1.82.08-2.62.08c-.48,0-.86,0-1.15,0,.74-7.67.33-17.49-.07-27-.31-7.59-.64-15.44-.34-21.65.31-6.42,1.21-9,1.66-9.9,7,.24,14.32.35,22.34.35,13.62,0,27.34-.33,40.62-.66s26.72-.66,40.05-.66m-3.5,381.53c2.46,0,5.17-.14,8.32-.29,4.1-.2,8.75-.43,14.23-.43h.64a5,5,0,0,0,.77-.05,68.24,68.24,0,0,1,8.64-.49c5,0,10.33.4,15.43.8s10,.77,14.79.77c7.2,0,16.35-.75,23.32-6.54a6,6,0,0,0,2.13-3.95c2.8-25.17,2.15-50.82,1.53-75.62-.42-16.87-.86-34.32-.18-51.2v-.33c-.42-26.88-.14-49.62.11-69.69.67-54.51,1-84.54-15.08-100.86-10.14-10.27-25.65-14.45-53.53-14.45-8.4,0-18.42.38-30.66,1.17a6,6,0,0,0-1.82.41c-8.65,3.42-9,12.39-9.16,18.32v.27c.4,33.61.33,69.08.27,103.38,0,12.3,0,24.54,0,36.64v.1c.85,46.82.16,79.14-.34,102.74-.76,35.71-1,47.73,5.66,54.56,4.08,4.16,9.61,4.74,15,4.74m-99.24-381h0M1235.13,249c-26.86,0-53.63,1.32-80.67,1.32-7.49,0-15-.1-22.53-.36l-.53,0c-12.28,0-4.31,42.6-6.54,64.39-.17,5.37,3.14,6.22,7.16,6.22,1.89,0,3.93-.18,5.84-.18,2.2,0,4.23.25,5.65,1.32,3.28,2.38,3.66,8.66,3.61,13.81-.44,57.61-.21,117.12-.21,174.21.27,58.31-.55,105.08.29,172.16.94,12.39,3.32,16.64,13.48,18.11,26.66.77,51.51,1,75.48,1,32.74,0,63.81-.42,95.52-.42,15.12,0,30.39.1,46,.38a3.48,3.48,0,0,0,1.65.45c14,0,3.45-109.8,6.7-133.49.17-57.31.31-113.07-.37-170.37,1.31-60.41-3.3-121.91-66.72-141.4-28.29-5.72-56.12-7.13-83.86-7.13Zm-3.5,381.53c-23.49,0-11.7-13.4-14.29-156.14,0-46.21.31-94.51-.23-140.09.25-7.38,1.05-11.23,5.37-12.94,11.42-.74,21.45-1.16,30.27-1.16,78.51,0,60.23,33.62,62.5,179.09-1.68,41.77,3.35,84.5-1.32,126.4-4.87,4-11.69,5.15-19.48,5.15-9.28,0-19.92-1.57-30.22-1.57a74.92,74.92,0,0,0-9.41.54h-.64c-9.81,0-17.12.72-22.55.72Z" transform="translate(-31.44 -9.31)"/><path class="cls-1" d="M1528.52,699.39a359.84,359.84,0,0,1-51.3-3.92c-.74-33.67-.52-69.74-.31-104.65.15-26.2.32-53.29.08-79.29.88-57.23.11-96.66-.46-125.45-.72-37-1-53.85,3.58-58.57,1.39-1.42,3.57-2,7.51-2,2.59,0,5.75.26,9.41.55,5.34.44,12,1,20,1a180.85,180.85,0,0,0,18.66-1c5.55.64,6,2.75,5.89,12.53,0,1.8,0,3.66,0,5.68.48,36.55.07,73.15-.33,108.55-.65,58.26-1.33,118.51,2.11,177.76a3,3,0,0,0,2.59,2.79,109.32,109.32,0,0,0,14.94,1.07c21.91,0,40.34-7.4,54.79-22,33.56-33.9,36.59-97.94,36.33-123.91,1.39-85.38.26-139.95-.48-176.07-.78-37.47-1.13-54.57,2.77-58.56.67-.68,1.72-1.31,4.92-1.31,1.76,0,3.89.18,6.35.39l2.2.18a49.71,49.71,0,0,0,9,.73c4.36,0,8.77-.4,13-.78,4-.36,7.78-.7,11.26-.7,6.13,0,10.09,1.1,12.63,3.54-.09,38.76.59,73.94,1.25,108,3.17,163,5.08,261.33-93,315.15C1596.09,692.55,1564.65,699.39,1528.52,699.39Z" transform="translate(-31.44 -9.31)"/><path d="M1701,255.43c4.54,0,7.61.62,9.62,2-.07,38.22.61,73,1.26,106.59,1.6,82.15,2.86,147-8.56,198.46-12,53.94-37.54,89.1-82.84,114-25.44,13.25-56.39,20-92,20a353.19,353.19,0,0,1-48.36-3.54c-.67-32.9-.46-68-.25-102,.15-26.18.32-53.26.08-79.25.88-57.32.11-96.76-.46-125.56-.64-32.79-1-52.59,2.72-56.41.46-.47,1.53-1.1,5.37-1.1,2.46,0,5.57.25,9.16.54,5.4.44,12.12,1,20.25,1a185.4,185.4,0,0,0,18.61-.94c2.06.29,2.28.83,2.39,1.1.64,1.55.6,4.86.55,8.38,0,1.73,0,3.69,0,5.75.48,36.53.07,73.1-.33,108.47-.66,58.32-1.33,118.62,2.12,178a6,6,0,0,0,5.17,5.6,113.7,113.7,0,0,0,15.35,1.09c22.74,0,41.89-7.7,56.92-22.88,34.33-34.67,37.46-99.58,37.2-126,1.39-85.47.26-140.06-.49-176.18-.42-20.66-.71-34.3-.3-43.55.44-10,1.7-12.32,2.22-12.85,0,0,.47-.41,2.78-.41,1.63,0,3.7.18,6.1.38l2.06.17a53.38,53.38,0,0,0,9.36.75c4.49,0,9-.41,13.3-.79,3.93-.36,7.64-.69,11-.69m0-6c-7.42,0-16.06,1.48-24.29,1.48a47.33,47.33,0,0,1-8.58-.7c-3.55-.29-6.49-.6-8.94-.6-19.68,0-6.65,20.27-10.21,239,.56,56.24-14.1,142.87-88.12,142.87a106.36,106.36,0,0,1-14.53-1c-5.51-94.78-.49-188.8-1.78-286.2-.29-11.83,2-20-8.89-21.16a177.65,177.65,0,0,1-18.67,1c-13.42,0-22.84-1.52-29.41-1.52-23.1,0-11,18.85-13.63,189.05.56,61.57-1.1,126.94.28,186.51a371.1,371.1,0,0,0,54.25,4.32c32.47,0,65.41-5.33,94.83-20.68,120.11-65.9,92.7-196.43,93.32-426.91-3.55-4.24-9.12-5.37-15.63-5.37Z" transform="translate(-31.44 -9.31)"/><path class="cls-1" d="M2810.82,697.13c-16.44,0-27.16-.57-29.84-3.46-1.33-1.44-1.19-4.25-.79-9.53a109.61,109.61,0,0,0,.39-12.47,55.29,55.29,0,0,0-.34-15.69c-1-7.54-1-9.06,4.22-10,39.85-1,72.48-1.3,98.71-1.55,66.79-.64,91.78-.88,98.55-10.58,2.15-3.07,2.38-6.91.7-11.73-4.18-16.33-23.14-18.87-38.39-20.91-3.56-.48-6.93-.93-9.78-1.52l-.33-.05c-7-.64-15-.95-25.22-.95-5.63,0-11.48.09-17.15.18s-11.79.18-17.69.18c-32.43,0-68.77-2.21-89.5-28.62-12.77-16.56-12-42.15-11.17-66.9.22-7,.43-13.52.34-19.82.79-5.27.32-11.37-.14-17.27-.77-10-1.5-19.41,3.53-23.46,12.24-.46,25.35-.67,41.16-.67,10.32,0,20.81.09,31,.18s20.77.17,31.21.17c7.63,0,14.49,0,21-.14,11.28.22,22.55.33,33.5.33,20.49,0,36.56-.37,49.46-.67,8.47-.2,15.17-.35,20.81-.35,11.07,0,18.45.56,21.08,3.33,2.39,2.53,2.07,8.24,1.54,17.72a261.68,261.68,0,0,0,.29,40c-.11,4.38-1.21,5.26-4.84,5.82-23.94.37-47.13.56-68.95.56-38.26,0-65.29-.56-85-1-10.76-.23-19.25-.41-25.83-.41-22.39,0-25.82,1.92-26.22,14.68,0,1.2-.08,2.56-.17,4-1.25,6.74,0,12.41,3.66,16.86,6.64,8,20.28,11.62,44.23,11.62,6.46,0,12.93-.25,18.63-.47,4.63-.18,9-.35,12.53-.35a40.44,40.44,0,0,1,6.88.41,2.42,2.42,0,0,0,.47,0c5.23.15,10.64.2,16.37.24,31.46.25,67.12.54,88.44,18.8,21,18.68,20.2,53.18,19.44,86.54-.26,11.48-.51,22.32.13,32.41-.67,3.77-1.53,3.77-4.86,3.77-.68,0-1.42,0-2.22,0-1,0-2,0-3.13,0s-2,0-3,.07c-25.94-.34-51.38-.51-75.61-.51-40.94,0-72,.48-94.59.84C2830.45,697,2819.56,697.13,2810.82,697.13Z" transform="translate(-31.44 -9.31)"/><path d="M3005,444.84c4.55,0,16.63,0,18.9,2.4,1.5,1.58,1.14,8,.73,15.48a264.4,264.4,0,0,0,.27,40.23,6.18,6.18,0,0,1-.34,2.24,5.39,5.39,0,0,1-1.76.5c-23.84.37-46.95.56-68.68.56-38.23,0-65.24-.56-85-1-10.77-.23-19.28-.41-25.89-.41-22.56,0-28.74,2.19-29.21,17.59,0,1.18-.08,2.41-.16,3.74-1.37,7.57.09,14,4.33,19.13C2827.54,556.6,2848,558,2864.77,558c6.52,0,13-.25,18.74-.47,4.6-.18,8.95-.35,12.42-.35a38.62,38.62,0,0,1,6.32.36,6,6,0,0,0,.94.1c5.27.15,10.69.2,16.43.24,30.93.25,66,.53,86.48,18.05,19.94,17.8,19.18,51.57,18.43,84.23-.26,11.39-.5,22.16.11,32.27-.09.41-.17.7-.23.91-.31,0-.81.06-1.6.06s-1.39,0-2.15,0c-1,0-2,0-3.21,0s-2.09,0-3.07.07c-25.91-.34-51.33-.51-75.56-.51-41,0-72,.48-94.64.84-13.77.21-24.65.38-33.36.38-10.81,0-17.61-.27-22-.9-4.79-.67-5.59-1.59-5.6-1.6-.49-.76-.2-4.52,0-7.26a110,110,0,0,0,.41-12.54,58.47,58.47,0,0,0-.37-16.23c-.28-2.13-.65-5-.4-6a6.64,6.64,0,0,1,2-.61c39.72-1,72.26-1.3,98.42-1.55,69.81-.67,93.32-.9,101-11.86,2.69-3.84,3.06-8.65,1.11-14.31-4.74-18.18-25.6-21-40.86-23-3.51-.47-6.82-.92-9.57-1.49l-.67-.1c-7.1-.65-15.19-1-25.49-1-5.65,0-11.52.09-17.19.18s-11.77.18-17.65.18c-39.35,0-69.23-4.67-87.12-27.45-12.12-15.73-11.32-40.76-10.55-65,.22-6.9.43-13.42.34-19.73.8-5.54.32-11.71-.14-17.69-.64-8.23-1.3-16.71,1.78-20.28,11.87-.42,24.62-.62,39.91-.62,10.31,0,20.79.09,30.93.18s20.78.18,31.24.18c7.61,0,14.48-.05,21-.15,11.29.22,22.56.33,33.51.33,20.53,0,36.61-.37,49.53-.67,8.46-.2,15.13-.35,20.74-.35M2782.86,649.46h0M3005,438.84c-14.38,0-36.47,1-70.27,1-10.09,0-21.23-.09-33.5-.33-7,.11-14,.14-21,.14-20.84,0-41.47-.35-62.17-.35-14,0-28,.16-42.18.7-11.07,7.29-3.1,29.28-5.38,43.49.49,28.86-5.73,66.46,11.48,88.79,20.79,26.48,56.13,29.76,91.86,29.76,11.74,0,23.52-.36,34.84-.36,8.66,0,17.05.21,24.94.94,14.89,3.07,41.39,2.29,45.9,20.36,8.23,23.16-33.16,16-195.38,20-13.3,2.25-4.15,12.49-6.59,28.5.95,24.38-10.38,28.63,33.25,28.63,23.41,0,62.6-1.22,128-1.22,22.09,0,47.2.14,75.66.51,1.05,0,2-.07,3-.07,2,0,3.82.09,5.36.09,4.5,0,6.9-.75,7.86-6.61-2.58-39.66,8.94-95.07-20.62-121.38-26.11-22.36-72.27-18.79-106.69-19.77a43.59,43.59,0,0,0-7.43-.46c-7.95,0-19.47.82-31.16.82-24.15,0-49.05-3.52-44.91-25.1.88-13.31-2.51-16.07,23.41-16.07,18.33,0,51.33,1.38,110.86,1.38,19.94,0,42.86-.15,69.19-.56,5.35-.79,7.49-3,7.6-8.92-4.89-56.37,13.25-63.93-25.91-63.93Z" transform="translate(-31.44 -9.31)"/><path class="cls-1" d="M2249.91,697.06c-12.25,0-19.36-1.2-21.15-3.56-2.26-16.44-1.54-26.15,2.25-30.51,2.47-2.85,6.51-4,14.39-4,2.68,0,5.65.12,8.79.25,3.66.15,7.81.32,12.17.32,3.4,0,6.54-.1,9.6-.31,5.53-.37,11.52-.56,18.31-.56,9.92,0,20.11.4,30,.77,9.7.38,18.87.73,27.68.73,27,0,52.75-3,58.3-25.09,2.13-6.88,3.88-16.41.19-22.94a13,13,0,0,0-8.6-6.31,3.11,3.11,0,0,0-.6-.09c-4.09-.16-8.45-.23-13.32-.23-8.85,0-18.18.26-27.2.51-9.23.27-18.78.54-28,.54-57.17,0-95.31-11.51-95.64-67.67,0-.11,0-.21,0-.32-3.92-35.16.85-59.72,14.59-75.08,17.13-19.14,46.78-21.73,73.52-21.73,10.81,0,22.24.49,33.29,1,11.2.48,22.79,1,33.9,1,3.55,0,6.83-.05,10-.14h.17c6.66,0,7.31-6.57,7.7-10.5.46-4.63.89-5.11,1.75-5.11a5.81,5.81,0,0,1,1.54.25,4.89,4.89,0,0,0,.53.09c3.36.29,7,.43,11.2.43,5.41,0,11-.24,16.48-.47s11.16-.47,16.64-.47a99.66,99.66,0,0,1,21.95,2c2.14,18.45,1.62,39.23,1.12,59.35-.37,14.51-.74,29.52-.13,43.63,3.29,71.74.95,117.71-20.73,140.41-18.81,19.7-52.22,23.43-107.28,23.43-9.75,0-20.57-.12-36.2-.38-5.5-.28-11.35-.42-17.77-.42-10.22,0-20.2.36-29,.67C2262.88,696.81,2255.9,697.06,2249.91,697.06Zm74.63-198c-7.54,0-13.82,3.9-18.15,11.27-7.74,13.16-7.71,36.06.06,50a3,3,0,0,0,1.55,1.34c4.88,1.86,10.6,2.72,18,2.72h0c4,0,8-.24,12-.47s7.87-.46,11.67-.46a63.54,63.54,0,0,1,7.57.4l.35,0h.19c1.93-.12,4.06-.18,6.52-.18,3.49,0,7.09.12,10.9.24s7.84.25,11.75.25a83.94,83.94,0,0,0,19.15-1.76,3,3,0,0,0,1.69-1.08c4.65-6,6.36-15.27,4.81-26-1.87-13-8-25.19-15.24-30.44a2.39,2.39,0,0,0-.34-.21c-8.75-4.71-17.84-6.72-30.4-6.72-5,0-10.09.3-15.48.62-5.85.35-11.9.71-18.35.71-2.26,0-4.39,0-6.51-.13C2325.71,499,2325.12,499,2324.54,499Z" transform="translate(-31.44 -9.31)"/><path d="M2413.72,429.85h0m44.61,1a103.42,103.42,0,0,1,19.2,1.5c1.83,17.72,1.34,37.55.86,56.79-.37,14.56-.74,29.62-.12,43.84,3.25,70.93,1,116.28-19.91,138.2-8.49,8.89-20.5,14.63-37.78,18.05-15.73,3.12-35.87,4.45-67.32,4.45-9.72,0-20.5-.11-36.06-.38-5.62-.28-11.48-.42-17.91-.42-10.28,0-20.29.36-29.12.67-7.37.27-14.32.52-20.26.52-12.9,0-17-1.32-18.33-2.08-1.9-14.46-1.33-23.55,1.7-27,1.8-2.07,5.31-2.91,12.12-2.91,2.61,0,5.56.12,8.67.24,3.69.16,7.87.33,12.29.33,3.47,0,6.68-.11,9.81-.32,5.45-.37,11.38-.55,18.1-.55,9.86,0,20,.39,29.84.77s18.93.73,27.8.73c17.32,0,29.18-1.41,38.44-4.58,12.34-4.22,20-11.86,22.75-22.7,2.29-7.44,4.11-17.79-.08-25.22a16.08,16.08,0,0,0-10.51-7.75,5.34,5.34,0,0,0-1.2-.17c-4.12-.17-8.52-.24-13.44-.24-8.88,0-18.24.26-27.28.52-9.21.26-18.73.53-27.94.53-21,0-47.38-1.28-65.65-11.19a46.74,46.74,0,0,1-19.41-19c-5-9-7.5-20.64-7.58-34.53,0-.21,0-.42,0-.63-3.82-34.26.71-58.06,13.85-72.75,16.34-18.26,45.2-20.73,71.28-20.73,10.75,0,22.14.49,33.16,1,11.23.48,22.85,1,34,1,3.55,0,6.83,0,10-.14h.18a9.68,9.68,0,0,0,9.19-6,23.49,23.49,0,0,0,1.49-7.16c.07-.63.15-1.43.24-2.12l.34,0c3.45.3,7.2.44,11.47.44,5.46,0,11.13-.24,16.6-.47s11.1-.47,16.52-.47h0m-125.52,65.37c-2.2,0-4.27,0-6.33-.12-.65,0-1.3-.08-1.94-.08-8.54,0-15.91,4.53-20.74,12.75-8.35,14.2-8.34,38,0,53a6.07,6.07,0,0,0,3.11,2.69c5.23,2,11.29,2.91,19.08,2.91,4,0,8.18-.24,12.18-.47s7.79-.46,11.5-.46a62,62,0,0,1,7.22.38c.24,0,.47,0,.7,0l.37,0c1.87-.11,3.94-.17,6.34-.17,3.45,0,7,.12,10.81.24s7.88.25,11.84.25c8.2,0,14.5-.58,19.84-1.84a6,6,0,0,0,3.37-2.17c5.16-6.66,7.07-16.72,5.4-28.31-2-13.71-8.58-26.75-16.44-32.44a4.79,4.79,0,0,0-.68-.42c-11.65-6.28-23.13-7.08-31.82-7.08-5.09,0-10.22.31-15.66.63-5.8.35-11.81.7-18.17.7m125.51-71.37c-11,0-22.37.94-33.11.94-3.74,0-7.4-.11-10.95-.42a9,9,0,0,0-2.33-.35c-7.92,0-1.56,15.61-9.45,15.61h-.2c-3.29.11-6.62.15-10,.15-22.05,0-45.38-1.93-67.19-1.93-55.32,0-100.88,12.41-91.09,100.15.37,62.43,47.08,70.64,98.64,70.64,18.42,0,37.46-1,55.22-1,4.49,0,8.91.06,13.21.23,11,2.7,9.16,16.13,6.24,25.53-4.77,19.18-27.19,22.9-55.41,22.9-17.89,0-38.11-1.5-57.64-1.5-6.27,0-12.48.16-18.51.57-3.26.22-6.4.3-9.4.3-8,0-15-.57-21-.57-16.58,0-24.31,4.47-19.53,38.49,2.29,4.41,11.18,5.53,24,5.53,13.23,0,30.65-1.19,49.38-1.19,5.8,0,11.74.12,17.71.41,13,.23,25.07.39,36.26.39,117.91,0,137.83-17.85,131-167-1.5-34.3,2.88-72.85-1.26-105.26-7.74-2-16.11-2.59-24.68-2.59Zm-125.51,77.37c12.48,0,23.52-1.33,33.83-1.33,10.12,0,19.54,1.28,29,6.36,11.86,8.59,20.24,38.74,9.82,52.22a82.47,82.47,0,0,1-18.47,1.68c-7.62,0-15.46-.49-22.65-.49-2.31,0-4.56.05-6.71.19a68.47,68.47,0,0,0-7.92-.42c-7.77,0-15.92.93-23.68.93-6,0-11.77-.55-16.94-2.52-10.56-19-6.19-56.82,15.47-56.82.52,0,1,0,1.58.07,2.28.09,4.5.13,6.69.13Z" transform="translate(-31.44 -9.31)"/><path class="cls-1" d="M2548.91,697.12c-8.91,0-19.69-.4-25.85-3.3-.2-4.55-.43-9.12-.66-13.56-2.78-54.73-5.18-102,49.8-111.76a382.33,382.33,0,0,1,39.62-2.1c10.84,0,19.77.48,26.94.87,4.93.27,9.19.5,12.75.5,6.73,0,11.88-.76,15.15-4.49,5.06-5.77,3.86-16.81.91-39.25a3.56,3.56,0,0,0-.1-.47c-2-6.83-5.73-10.8-12.71-13.7a2.24,2.24,0,0,0-.5-.16c-9.73-2.17-22.69-3.17-40.78-3.17-11.3,0-23,.38-34.36.76-10.36.34-20.14.66-28.75.66-16.06,0-25.41-1.24-27.78-3.69-.26-.27-.29-.43-.28-.55.43-6.4.11-14.83-.22-23.75-.54-14.12-1.27-33.45,2.45-37.32a.76.76,0,0,1,.63-.31l.28,0a2.32,2.32,0,0,0,.38,0c6.14.27,12.58.4,19.67.4,12.23,0,24.5-.4,36.36-.79s22.82-.75,33.76-.75c34.72,0,70,3.42,93.13,28.19l.15.15c27.36,25.5,26.17,68.26,25.21,102.61-.29,18.14-.15,35.4,0,52.09.19,22,.38,44.77-.43,69.37-.8,2-2.42,3.18-7.29,3.18-1.81,0-3.8-.16-5.91-.33-2.31-.18-4.71-.37-7.12-.37a35.41,35.41,0,0,0-3.7.18c-8.63-.09-17.53-.13-28-.13-8.71,0-17.35,0-26.08.06-8.91,0-17.91,0-27.17,0h-.08c-7.07-.38-14.42-.57-22.47-.57-11.76,0-23.17.41-33.23.78C2564.08,696.82,2556,697.12,2548.91,697.12Zm79.51-40.35a2.59,2.59,0,0,0,.48,0,3.21,3.21,0,0,0,.63-.06c11.61-1.19,30.81-8.67,37.91-21.85,3.86-7.18,3.65-15.21-.62-23.21a3,3,0,0,0-2.42-1.57c-5.9-.46-12.33-.69-19.67-.69-7.72,0-15.58.25-23.19.49s-15.21.47-22.68.47H2597c-2.66,0-4.79,2-6.35,5.89-3.38,8.51-5,30.82,1.08,36.57a2.89,2.89,0,0,0,1.48.76c9.52,1.9,20,2.42,31.18,3Z" transform="translate(-31.44 -9.31)"/><path d="M2615.62,444.26c34,0,68.63,3.3,90.94,27.23a2.13,2.13,0,0,0,.3.3c26.37,24.58,25.19,66.59,24.25,100.34v.07c-.29,18.14-.15,35.42,0,52.13.19,21.78.38,44.29-.41,68.57-.39.51-1.34,1-4.31,1-1.69,0-3.62-.16-5.67-.32-2.37-.19-4.83-.38-7.36-.38-1.38,0-2.64.06-3.84.17-8.61-.08-17.48-.12-27.89-.12-8.72,0-17.56,0-26.11.06-8.78,0-17.86,0-27.09,0-7.1-.38-14.48-.57-22.55-.57-11.82,0-23.25.41-33.34.78-8.53.3-16.6.59-23.62.59-7.25,0-17-.27-22.94-2.34-.18-3.92-.38-7.84-.57-11.66-1.37-26.86-2.66-52.23,3.27-71.91,6.27-20.82,20.24-32.49,43.95-36.73a379.59,379.59,0,0,1,39.2-2.07c10.76,0,19.64.48,26.78.87,5,.27,9.27.5,12.91.5,6.53,0,13.16-.67,17.41-5.52,5.91-6.74,4.7-18.26,1.62-41.61a6,6,0,0,0-.2-.94c-2.31-7.69-6.62-12.36-14.42-15.61a5.16,5.16,0,0,0-1-.32c-9.95-2.21-23.11-3.24-41.43-3.24-11.35,0-23.1.38-34.46.76-10.34.34-20.09.66-28.65.66-17.49,0-23.17-1.52-25-2.4.32-6.35,0-14.31-.3-22.7-.3-8.1-.62-16.47-.34-23.31s1.11-9.91,1.6-11.12c6,.26,12.27.38,19.17.38,12.27,0,24.56-.4,36.45-.79,11.71-.38,22.77-.75,33.66-.75m-16.76,163.13H2597c-2.76,0-6.58,1.35-9.13,7.78-2.33,5.85-3.19,14.44-3.22,20.54,0,9.63,1.65,16.14,5,19.33a6.06,6.06,0,0,0,2.95,1.52c9.74,1.93,20.37,2.46,31.63,3l4,.2c.21,0,.43,0,.65,0a5.65,5.65,0,0,0,.93-.07c11.47-1.18,32.21-8.48,40.25-23.41,4.37-8.11,4.15-17.11-.62-26a6,6,0,0,0-4.82-3.15c-6-.47-12.5-.7-19.91-.7-7.77,0-15.65.25-23.28.49-7.46.23-15.17.47-22.59.47M2526.73,444.7h0M2634.9,653.79h0m-19.28-215.53c-22.36,0-46.17,1.54-70.11,1.54-6.51,0-13-.11-19.55-.4a4.37,4.37,0,0,0-.79-.07c-11,0-4.45,43.94-5.86,64.24-.18,5.91,12.69,7.38,31.06,7.38,18.1,0,41.55-1.42,63.11-1.42,15.14,0,29.36.7,40.13,3.09,5.82,2.43,9.11,5.55,11,11.8,4.56,34.66,4.42,40.35-13.08,40.35-8.57,0-21.31-1.37-39.69-1.37a388.47,388.47,0,0,0-40,2.12c-63.08,11.14-54.12,70.49-51.65,130.13,5.74,3.51,15.78,4.46,28.78,4.46,15.55,0,35.32-1.37,57-1.37,7.28,0,14.78.16,22.39.57h.07c18.36,0,35.68-.11,53.29-.11,9.25,0,18.58,0,28.17.13a32.27,32.27,0,0,1,3.56-.18c4.46,0,9.06.7,13,.7,4.82,0,8.71-1,10.27-5.6,1.46-43.45-.21-79.77.45-122,1-37.1,1.63-79-26.15-104.9-22.95-24.61-57-29.14-95.33-29.14Zm-16.76,175.13c15.08,0,30.58-1,45.87-1,6.53,0,13,.18,19.44.68,13,24.3-18.88,39.17-35.27,40.68v0h0c-12.37-.64-24.55-1-35.09-3.13-5.67-5.35-3.07-37.28,3.21-37.28h1.84Z" transform="translate(-31.44 -9.31)"/><path class="cls-1" d="M1945.78,699.06c-4.61,0-10.38-.35-17.07-.75-10.61-.64-23.82-1.43-40.63-1.43-10.17,0-20.23.28-30.75.87-6.65-.35-13.73-.52-21.65-.52-11.39,0-22.32.35-32.9.69-8.8.28-17.11.54-24.32.54-5.27,0-20.71,0-25.08-3.32-.13-6.43-.48-13.13-.85-20.2-1.91-36.71-4.07-78.32,25.11-96,16.08-9,34.06-10.26,49.53-10.26,6.6,0,13.4.26,20,.52s13.39.52,20,.52a141.9,141.9,0,0,0,26.4-2.08,3,3,0,0,0,1.69-1c6.67-7.49,6.18-27.43,1.57-40.65-3.12-8.95-7.77-14.2-13.45-15.18-14.26-2-29.55-3-48.23-3-10.8,0-21.71.3-32.27.6s-21.23.59-31.78.59c-2.08,0-4.15,0-6.23,0h-.13l-1.39,0c-4.7,0-7.72-.8-9.25-2.44-2.43-2.6-2-8.44-1.51-15.83l.15-2.25a173.73,173.73,0,0,0,.06-20.52,177.06,177.06,0,0,1,.12-21.56c3.33-2.5,10.11-3.77,20.18-3.77,6.44,0,13.34.47,20,.93,5.94.41,11.55.8,16.22.8a38.62,38.62,0,0,0,8.31-.69c5.27,0,10.71-.1,16-.18,5.55-.09,11.3-.18,17-.18,30.92,0,65.81,2.19,88.57,28.32l.18.2c25.92,24.86,25.23,62.84,24.56,99.57-.11,6.27-.22,12.19-.2,18.1-.28,24.52.13,43.64.47,59,.61,27.93.91,41.94-4.12,47.08C1957.65,698.07,1953.52,699.06,1945.78,699.06Zm-88-41.28h.26a3.08,3.08,0,0,0,.53,0c11.46-1.28,31-7.91,38.37-21.14,3.95-7.06,3.95-14.85,0-23.15a3,3,0,0,0-2.3-1.68,171.66,171.66,0,0,0-23.6-1.27c-4.11,0-8.29.06-12.34.13s-8,.12-11.8.12h-2.24l-.68,0c-8.38,0-19.11,8.71-24.42,19.82-4.56,9.55-4.1,18.84,1.27,25.49a3,3,0,0,0,2.11,1.11c6.69.52,14.12.53,22,.53C1849.13,657.69,1853.51,657.69,1857.74,657.78Z" transform="translate(-31.44 -9.31)"/><path d="M1773.08,445.69c6.33,0,13.18.47,19.81.92,6,.42,11.65.81,16.43.81a42,42,0,0,0,8.63-.7c5.2,0,10.54-.09,15.71-.17,5.54-.09,11.28-.18,16.91-.18,37.53,0,66.57,4.65,86.3,27.29a3.41,3.41,0,0,0,.37.39c25,23.95,24.29,61.27,23.63,97.35-.11,6-.22,12.19-.2,18.12-.28,24.6.13,43.73.47,59.1.55,25.37.88,40.69-3.26,44.92-1.73,1.77-5.35,2.52-12.1,2.52-4.52,0-10.25-.34-16.89-.74-10.65-.65-23.91-1.44-40.81-1.44-10.17,0-20.24.28-30.76.87-6.65-.35-13.73-.52-21.64-.52-11.44,0-22.89.36-33,.69-8.77.28-17.06.54-24.22.54-14.26,0-19.91-1.21-22.12-2.09-.16-6-.48-12.12-.81-18.59-1-18.73-2-38.09.94-55.1,3.2-18.55,10.39-30.68,22.65-38.14,15.53-8.7,33-9.88,48.05-9.88,6.55,0,13.31.26,19.86.52s13.44.52,20.12.52a145.39,145.39,0,0,0,27-2.13,6,6,0,0,0,3.37-1.91c7.47-8.38,7.15-29.33,2.16-43.63-4.42-12.68-11-16.32-15.77-17.15l-.19,0c-14.3-2-29.73-3-48.55-3-10.84,0-21.77.3-32.35.6-10.41.29-21.19.59-31.7.59-2.12,0-4.2,0-6.2,0h-.25l-1.3,0c-5.12,0-6.64-1-7.06-1.49-1.53-1.64-1.11-7.71-.71-13.57,0-.73.11-1.47.16-2.23a179.56,179.56,0,0,0,.06-20.86,187.77,187.77,0,0,1,0-19.72c2.35-1.21,7.22-2.5,17.31-2.5m73.79,162.07h-2.16l-.77,0c-10.94,0-22.14,11.09-27.12,21.53-5.08,10.63-4.48,21.08,1.64,28.67a6,6,0,0,0,4.2,2.21c6.81.53,14.29.54,22.22.54,4.22,0,8.59,0,12.8.1h.32a6.15,6.15,0,0,0,.87-.06c10.45-1.17,32.08-7.35,40.65-22.65,4.39-7.85,4.42-16.81.09-25.91a6,6,0,0,0-4.6-3.36,174.33,174.33,0,0,0-24-1.3c-4.13,0-8.32.06-12.38.13s-7.94.12-11.75.12m17.13,47h0m-90.92-215.1c-10,0-18.86,1.14-23.07,5.3-1.48,15.93.86,28.54-.28,43.35-1,14.86-2.46,23.72,13.6,23.72l1.48,0q3.14,0,6.27,0c21.25,0,42.6-1.19,64.05-1.19a338.94,338.94,0,0,1,47.71,2.91c14,2.44,18.62,41.39,10.16,50.88a140.85,140.85,0,0,1-25.85,2c-13.16,0-26.69-1-40-1-17.9,0-35.4,1.88-51.08,10.7-36.77,22.3-26.35,79-25.69,120.06,3.25,4,13.65,5,28.06,5,15.68,0,36.1-1.23,57.22-1.23,7.19,0,14.46.14,21.65.52,11.37-.63,21.58-.87,30.75-.87,27.67,0,45.83,2.18,57.7,2.18,30,0,19.75-14,20.89-112.52-.15-40.94,6.08-89.73-25.28-119.82-22.74-26.11-56.63-29.35-90.83-29.35-11.19,0-22.41.35-33.28.36a35.06,35.06,0,0,1-8,.69c-9.72,0-23.9-1.73-36.24-1.73Zm73.79,174.07c7.8,0,16-.25,24.13-.25a173.76,173.76,0,0,1,23.19,1.24c12,25.17-19.59,38.27-36.19,40h0c-11.92-.27-24.55.17-34.87-.63-12.1-15,7.9-40.43,20.81-40.43l.58,0Z" transform="translate(-31.44 -9.31)"/><path class="cls-1" d="M2013.81,698.34c-9,0-10.22-2.33-10.51-4.57-.1-35.88,0-72.32,0-107.55.07-43.38.13-88.23-.09-132.35a2.74,2.74,0,0,0,0-.5c-.65-3.65-.36-6.23.86-7.69s4-2.26,8.28-2.26c2.77,0,5.93.3,9,.59s6.46.62,9.48.62a30.23,30.23,0,0,0,4.13-.25c1,.07,2,.1,3,.1h0c3.26,0,6.68-.29,10-.58s6.28-.54,9.11-.54c5.3,0,8.47.93,10.27,3,2,2.35,2.59,6.68,1.67,12.86a3,3,0,0,0,5.58,1.93c8.37-14.7,19.58-17.65,34.94-17.65,2.91,0,6,.11,8.88.21s6.15.21,9.24.21l1.65,0c3.94.13,8.11.19,12.76.19,6.12,0,12.32-.11,18.31-.21s12.19-.21,18.3-.21c10.11,0,18.45.3,26.21.93,2,.83,2,8.1,1.95,13.44,0,1.76,0,3.57,0,5.37,0,16.82-2,18.61-11.64,19.53-6.47-.51-12.19-.76-17.45-.76-33.53,0-43.91,10.66-59.62,26.79-3.69,3.79-7.87,8.08-12.72,12.61-42.8,33.08-41.08,56.89-38.71,89.82.69,9.58,1.47,20.43,1.19,32.53a328.33,328.33,0,0,0,.25,35.35c.45,8.86.75,14.72-1.17,16.74-1.33,1.39-4.55,2-10.77,2-3.55,0-8-.19-12.73-.4a58.48,58.48,0,0,0-7.23-.4c-4.1,0-8.25.3-12.27.6C2020.31,698.09,2016.87,698.34,2013.81,698.34Z" transform="translate(-31.44 -9.31)"/><path d="M2057,446.36c4.24,0,6.85.65,8,2,1.4,1.62,1.75,5.33,1,10.46a6,6,0,0,0,4,6.55,5.85,5.85,0,0,0,2,.33,6,6,0,0,0,5.21-3c7.66-13.44,18-16.14,32.34-16.14,2.86,0,5.74.1,8.78.2s6.2.21,9.34.21h1.63c4,.13,8.13.19,12.78.19,6.15,0,12.36-.11,18.37-.21s12.16-.21,18.24-.21c9.42,0,17.28.26,24.57.81.6,2.17.6,7.32.59,10.56,0,1.74,0,3.54,0,5.36,0,5.64-.24,11.71-1.71,14.1-.37.6-1.13,1.83-7,2.43-6.43-.5-12.14-.74-17.42-.75-34.79,0-45.52,11-61.76,27.7-3.64,3.74-7.76,8-12.52,12.42-43.95,34-42.19,58.48-39.75,92.32.68,9.49,1.46,20.24,1.18,32.17a333.68,333.68,0,0,0,.25,35.65c.29,5.66.68,13.42-.35,14.51-.16.18-1.37,1-8.59,1-3.46,0-7.87-.18-12.47-.39a61,61,0,0,0-7.49-.41c-4.21,0-8.42.31-12.49.61-3.59.26-7,.51-9.93.51-3.2,0-5.47-.3-6.75-.89-.5-.24-.67-.34-.76-.9-.1-35.8,0-72.15,0-107.31.07-43.38.13-88.25-.09-132.38a5.86,5.86,0,0,0-.09-1c-.54-3-.22-4.71.21-5.23.24-.28,1.36-1.19,6-1.19,2.63,0,5.58.28,8.7.58s6.6.63,9.76.63a36.46,36.46,0,0,0,4.23-.23c.93.05,1.9.08,2.94.08,3.39,0,6.87-.3,10.23-.59,3.16-.27,6.15-.53,8.86-.53m0-6c-6,0-12.88,1.12-19.09,1.12-1.07,0-2.12,0-3.14-.11a28.54,28.54,0,0,1-4,.26c-5.76,0-12.65-1.21-18.46-1.21-8.07,0-14.07,2.33-12.1,13.47.4,80-.13,159.94.09,240.06.67,6,6.12,7.39,13.51,7.39,6.59,0,14.74-1.12,22.42-1.12a54.73,54.73,0,0,1,7,.39c5.21.24,9.48.41,13,.41,23.39,0,12.29-7.83,14.68-57,1.26-53.23-17.6-78.39,36.47-120.13,25.46-23.74,30.35-38.69,70.4-38.69,5.19,0,11,.26,17.47.77,12.6-1.17,14.58-5.44,14.62-22.61-.23-10.14.91-20.4-4.43-21.71-9-.74-17.92-1-26.77-1-12.26,0-24.41.42-36.61.42-4.23,0-8.48-.05-12.73-.19h-1.68c-6.05,0-12.17-.41-18.12-.41-14.47,0-28,2.44-37.55,19.16,2.42-16.26-5-19.32-14.91-19.32Z" transform="translate(-31.44 -9.31)"/><path class="cls-1" d="M2428.76,1062.41c-13.58,0-29.86-3.12-49.77-9.52-20.38-12-19.82-53.09-19.37-86.14.12-9.1.24-17.69,0-25.36-1.72-46.32-1.67-80.44,14.86-97.6,8.44-8.76,21.24-13,39.14-13,11,0,23.7,1.55,38.89,4.73,30.44,10.53,29.29,46.65,28.17,81.59-.33,10.54-.65,20.51-.11,29.73,4.21,54.51-.58,86-15.52,102.12C2456.62,1058,2444.76,1062.41,2428.76,1062.41Zm-37.25-152.59c1.09,13.79.41,27.53-.26,40.83-1.13,22.7-2.3,46.17,5.69,69.2a3,3,0,0,0,1.18,1.52c10.21,6.74,18.71,10,26,10h0a19,19,0,0,0,14.11-5.88c12.41-12.82,11.42-43.65,10.69-66.16-.14-4.26-.26-8.28-.27-11.56a1.48,1.48,0,0,0,0-.21c-.54-7.27-.21-15.17.13-23.54.65-16,1.33-32.5-3.68-48a2.92,2.92,0,0,0-.58-1c-9.41-11-18.63-13.27-24.72-13.27-7.78,0-15.07,3.69-20.54,10.4C2391.52,881.56,2388.64,895.64,2391.51,909.82Z" transform="translate(-31.44 -9.31)"/><path d="M2413.57,833.78c10.58,0,23.39,1.56,38.08,4.63,12.5,4.38,20,13.55,23.65,28.83,3.46,14.56,2.89,32.45,2.33,49.76-.33,10.62-.65,20.65-.11,30a.37.37,0,0,1,0,.11c4.13,53.54-.41,84.32-14.73,99.79-7.79,8.41-18.92,12.5-34,12.5-13.19,0-29.07-3-48.53-9.27-18.59-11.34-18.05-51.23-17.61-83.35.12-9.14.24-17.77,0-25.51-1.7-45.58-1.68-79.1,14-95.41,7.84-8.14,19.94-12.09,37-12.09h0m-25,76.45c1.06,13.54.38,27.13-.27,40.28-1.15,23-2.33,46.74,5.84,70.32a6,6,0,0,0,2.37,3c10.72,7.08,19.75,10.52,27.63,10.52a21.84,21.84,0,0,0,16.26-6.79c13.3-13.74,12.28-45.3,11.54-68.35-.14-4.23-.26-8.23-.27-11.46,0-.15,0-.29,0-.44a210.05,210.05,0,0,1,.14-23.19c.63-15.48,1.35-33-3.82-49.08a6.13,6.13,0,0,0-1.16-2.07c-10.15-11.83-20.28-14.31-27-14.31-8.7,0-16.82,4.08-22.87,11.51-8.23,10.1-11.35,25-8.37,40m25-82.45c-58.49,0-59.59,44-57,113.72,1.36,37-6.71,98.21,21.18,114.14,20.35,6.57,37.18,9.77,51,9.77,50.33,0,60.65-42.4,54.75-118.75-2.35-40.25,12-99.61-30.25-114-15.53-3.27-28.63-4.84-39.69-4.84Zm10.53,200.61c-6.25,0-14.2-2.84-24.33-9.52-12.39-35.74-2.24-71.61-5.28-109.48-5.07-24.6,8.36-44.69,25.28-44.69,7.24,0,15.11,3.67,22.45,12.22,7.45,23.13,1.84,49.65,3.41,70.88,0,23.82,6.39,80.59-21.53,80.59Z" transform="translate(-31.44 -9.31)"/><path class="cls-1" d="M2174.51,1063.12c-12.37,0-20.65-1.7-26-5.34-9.58-14.3-7.26-39.85-5-64.56,1.54-16.89,3.13-34.36,1-48.71,1.38-15,.59-33.57-.17-51.56-1.15-27.2-2.58-61,7-62.39,13.21-.86,24.6-1.28,34.81-1.28,34.41,0,54.55,4.86,65.31,15.74,13.31,13.47,13,36.46,12.63,71.25-.14,11.52-.29,24.58.07,38.78-.3,7.83-.13,16.24,0,24.37.8,39.69,1.56,77.18-43.44,81.45-.89,0-1.81,0-2.74,0-6.17,0-13.08.53-20.38,1.09C2189.89,1062.51,2182,1063.12,2174.51,1063.12ZM2202,861.56c-7.27,0-15.66,2.07-24.95,6.16a3,3,0,0,0-1.76,2.34c-1.76,12.67-1.28,27.33-.79,42.85.35,10.77.71,21.91.31,32.85,0,.11,0,.22,0,.34.81,10.46.35,21.72-.09,32.61-.87,21.22-1.62,39.56,6.83,48.36,3.21,3.34,7.54,5,12.87,5h0c7.84,0,18.15-3.63,31.52-11.11a3,3,0,0,0,1.22-1.29c9.16-18.4,7.95-38.84,6.67-60.49-.73-12.48-1.49-25.39-.06-37.78,2.53-22.68-1-40.65-9.9-50.61C2218.38,864.68,2211,861.56,2202,861.56Z" transform="translate(-31.44 -9.31)"/><path d="M2186.12,826.28v6c33.53,0,53,4.58,63.16,14.85,12.43,12.58,12.16,35.06,11.76,69.1-.14,11.53-.29,24.58.07,38.8-.3,7.89-.13,16.31,0,24.45.38,18.91.78,38.46-4.53,53.09-5.59,15.41-17,23.45-36,25.29q-1.28,0-2.64,0c-6.29,0-13.25.53-20.61,1.1-7.63.59-15.52,1.19-22.84,1.19-11.2,0-19-1.47-23.83-4.51-8.61-13.52-6.36-38.22-4.19-62.12,1.54-16.93,3.13-34.43,1-49.07,1.35-15.1.56-33.65-.19-51.6-.7-16.52-1.36-32.12-.35-43.79s3.45-15.19,4.67-15.48c13.08-.85,24.35-1.27,34.46-1.27l0-6m8.31,208.83c8.36,0,19.15-3.76,33-11.5a5.94,5.94,0,0,0,2.45-2.56c9.51-19.12,8.22-40.92,7-62-.73-12.35-1.48-25.12-.08-37.28,1.86-16.65,1.52-39.34-10.65-52.93C2220,862,2211.9,858.56,2202,858.56c-7.69,0-16.49,2.16-26.16,6.42a6,6,0,0,0-3.52,4.67c-1.79,12.92-1.32,27.7-.82,43.35.35,10.73.7,21.82.32,32.65a5.15,5.15,0,0,0,0,.68c.8,10.28.34,21.45-.1,32.26-.89,21.91-1.67,40.84,7.67,50.56,3.79,4,8.85,6,15,6m-8.33-208.83c-10.34,0-22,.44-35.11,1.3-19.14,2.36-5.55,75.06-9.52,117,5.43,35.34-12.64,90.23,4.88,115.33,6.7,4.84,16.91,6.2,28.16,6.2,14.57,0,30.87-2.29,43.45-2.29,1,0,1.91,0,2.83,0,58.15-5.38,44.59-64.42,46.32-108.8-2.32-90.16,16.3-128.79-81-128.79Zm8.33,202.83c-26.39,0-13.78-46.41-16.63-83.25,1-26.64-2.49-54.19.45-75.39,9.26-4.08,17.12-5.91,23.74-5.91,25.05,0,32.18,26.29,28.81,56.53-3.87,33.49,7.84,68.85-6.32,97.29-13.41,7.5-23.09,10.73-30.05,10.73Z" transform="translate(-31.44 -9.31)"/><path class="cls-1" d="M2042.08,1062.26c-17.23,0-29.71-4.21-38.14-12.87-16.52-17-15.65-49.16-14.74-83.23.35-13,.72-26.54.08-39.44.76-7.53.32-18.41-.2-31-1-24.76-2.28-55.57,6.55-64.76a7.47,7.47,0,0,1,5.71-2.47c4.59,0,10.75,3.16,18.31,9.38,2.56,29,1.4,60.38.37,88.08-1.55,42-2.89,78.35,8.32,96.58a2.94,2.94,0,0,0,1.07,1c8.59,4.91,15.91,7.3,22.36,7.3a20.58,20.58,0,0,0,15.52-6.62c16.06-17,13.45-64.08,10.92-109.64-2-35.83-4-72.89,5.07-82.52a6.52,6.52,0,0,1,5-2.19,10.55,10.55,0,0,1,2.46.31,3.25,3.25,0,0,0,.69.08,1.51,1.51,0,0,0,.3,0c1.63-.16,3.16-.25,4.55-.25,4.88,0,8.23,1,10.22,3.08,3.61,3.72,3.35,11.43,3,20.35-.11,3.31-.23,6.73-.16,10.28-1.73,23.63-.77,49.21.16,74,2.11,56,4.1,108.86-27,118.94C2067,1060.36,2053.42,1062.26,2042.08,1062.26Z" transform="translate(-31.44 -9.31)"/><path d="M2001.34,831.5c2.13,0,6.87,1.07,15.43,7.91,2.4,28.49,1.26,59.23.26,86.44-1.57,42.52-2.93,79.25,8.76,98.26a5.84,5.84,0,0,0,2.13,2.06c9.06,5.18,16.86,7.7,23.85,7.7a23.51,23.51,0,0,0,17.7-7.55c16.94-17.92,14.3-65.69,11.73-111.88-1.06-19.26-2.07-37.44-1.59-52.25.6-18.7,3.51-25.57,5.85-28a3.54,3.54,0,0,1,2.83-1.25,8.12,8.12,0,0,1,1.78.23,5.76,5.76,0,0,0,1.37.16l.61,0a40.92,40.92,0,0,1,4.24-.24c4,0,6.68.73,8.07,2.16,2.71,2.81,2.46,10.27,2.2,18.17-.11,3.31-.22,6.72-.16,10.3-1.73,23.75-.77,49.37.16,74.15,1.09,28.92,2.12,56.24-1.2,77.57-3.42,22-10.94,34.2-23.67,38.37-15.21,3.66-28.54,5.52-39.61,5.52-16.38,0-28.15-3.92-36-12-15.64-16.06-14.79-47.63-13.89-81,.35-13,.71-26.5.08-39.45.76-7.72.31-18.62-.2-31.19s-1.1-26.87-.36-38.79c1-15.42,3.83-21.43,6.07-23.77a4.57,4.57,0,0,1,3.55-1.54m0-6c-25.22,0-12.3,75.08-15.07,101.14,3.18,62.85-17.79,138.62,55.81,138.62,11.35,0,25-1.81,41.24-5.74,47.66-15.24,23.29-117,29.08-195.71-.37-19.45,4.84-36.79-16.12-36.79a47.51,47.51,0,0,0-4.84.27,13.9,13.9,0,0,0-3.15-.39c-39.18,0,18.31,201-36.52,201-5.68,0-12.56-2.15-20.87-6.9-18.19-29.58-1.75-112.44-8.37-184.6-9-7.62-15.94-10.87-21.19-10.87Z" transform="translate(-31.44 -9.31)"/><path class="cls-1" d="M1738.5,1062.93a86.23,86.23,0,0,1-16.83-1.76l-.23,0a60,60,0,0,0-7.25-.39c-3.48,0-7.14.21-10.68.41s-7.11.4-10.5.4c-6.36,0-10.91-.75-14.3-2.35-3.5-2.18-5.07-11.67-3.21-19.67.94-4,3-8.42,6-8.63l.35,0a65.22,65.22,0,0,1,11.94-.89c4.34,0,8.89.22,13.71.44s10,.48,14.93.48c18.27,0,39.41-3.32,40.86-29.2,4-34.94-20.34-37.82-41.84-40.36-13.18-1.56-25.64-3-32.32-10.84a.27.27,0,0,0-.07-.08c-17.5-19.12-22-62.58-9.39-91.18,5.73-13,17.41-28.55,40.49-28.55a56.94,56.94,0,0,1,5.76.31,88.83,88.83,0,0,0,9.3.43c6.18,0,12.87-.44,19.33-.88s12.61-.85,18.27-.85c11.08,0,17.52,1.67,20.28,5.24,1.93,2.5,2.21,6.22.86,11.37a2.88,2.88,0,0,0-.1.87c0,1,.12,2.05.21,3.14.63,7.69.32,11.44-5.13,12.55a75.61,75.61,0,0,1-11.65.76c-4.92,0-10-.28-15.44-.56s-10.93-.58-16.25-.58c-16.73,0-36.37,2.86-39.68,25.17-2.18,14.63-.57,25.12,4.91,32.06,7.53,9.54,21,10.72,34.12,11.86,12,1,24.5,2.13,32.5,9.47,20.9,27.12,26.07,63.41,12.84,90.4C1780.39,1051.75,1762,1062.93,1738.5,1062.93Z" transform="translate(-31.44 -9.31)"/><path d="M1772.87,832.69c9.8,0,15.82,1.37,17.9,4.07,1.31,1.69,1.42,4.65.33,8.78a6.44,6.44,0,0,0-.19,1.75c0,1.07.13,2.18.22,3.26.66,8.14-.17,8.84-2.67,9.35a72.63,72.63,0,0,1-11.12.72c-4.84,0-9.91-.27-15.27-.56s-11-.58-16.42-.58c-10.54,0-38.54,0-42.65,27.73-2.3,15.49-.5,26.73,5.52,34.36,8.34,10.56,22.51,11.79,36.22,13,11.45,1,23.28,2,30.54,8.53,20.1,26.2,25.07,61.11,12.37,87-9.42,19.22-26.88,29.81-49.16,29.81a82.57,82.57,0,0,1-16.23-1.7l-.45-.08a62.16,62.16,0,0,0-7.63-.41c-3.56,0-7.26.21-10.84.41s-7,.4-10.33.4c-5.78,0-9.87-.63-12.83-2-1.69-1.28-3.53-8.73-1.76-16.36,1.08-4.66,2.85-6.28,3.33-6.32a4.06,4.06,0,0,0,.7-.09,63,63,0,0,1,11.39-.83c4.26,0,8.78.21,13.57.44s10.06.48,15.07.48c11.5,0,42,0,43.85-31.94,1.91-16.76-2.28-28.27-12.83-35.17-8.75-5.73-20.39-7.1-31.64-8.43-12.59-1.49-24.48-2.9-30.4-9.82l-.13-.15c-7.82-8.53-13.35-23.07-15.17-39.88-1.87-17.19.43-34.71,6.3-48.06,5.38-12.21,16.28-26.76,37.75-26.76a50.84,50.84,0,0,1,5.44.3,92.32,92.32,0,0,0,9.62.44c6.28,0,13-.45,19.53-.89s12.51-.84,18.07-.84m0-6c-11.63,0-25.54,1.73-37.6,1.73a85.78,85.78,0,0,1-9-.41,58,58,0,0,0-6.07-.33c-58.14,0-61.9,93.54-33.31,124.76,19.41,22.68,79.5-3,73.45,49-1.23,22.7-18.47,26.45-37.87,26.45-9.58,0-19.68-.92-28.64-.92a68.21,68.21,0,0,0-12.5.94c-11,.76-12.91,28.79-4,33.93,4.4,2.13,9.87,2.71,15.71,2.71,6.92,0,14.36-.81,21.17-.81a56.7,56.7,0,0,1,6.9.37,88.57,88.57,0,0,0,17.41,1.82c62.35,0,80.85-75.8,41.23-126.92-23.72-22.23-79.47,7.46-70.78-50.92,2.83-19.13,18.53-22.61,36.71-22.61,10.4,0,21.62,1.14,31.69,1.14a78.07,78.07,0,0,0,12.18-.81c10.18-2,7.64-12.16,7.39-18.75,4.42-16.88-7.52-20.37-24-20.37Z" transform="translate(-31.44 -9.31)"/><path class="cls-1" d="M1892,1062.89a11.85,11.85,0,0,1-9.2-3.79c-9.48-10.27-7.2-39-5.38-62,1.16-14.58,2.16-27.21.19-33.9-1.5-11.27-.69-26.43.09-41.1,1.62-30.54,3.16-59.39-14.62-60.67h-.34c-3,.13-5.91.28-8.61.43-4.47.24-8.34.45-11.74.45-7.12,0-10.93-1-12.76-3.34-2.69-3.44-2.42-11.24.84-24.52,3.27-3.35,8.34-4.85,16.29-4.85,4.68,0,9.9.53,14.94,1.05a156.78,156.78,0,0,0,15.68,1.09,52.44,52.44,0,0,0,6.12-.32,99.34,99.34,0,0,0,11,.57c6.64,0,13.3-.53,19.74-1.05s12.48-1,18.51-1c9.17,0,16.54,1.2,23,3.76,3.64,12.23,4,20.39,1.2,24.26-1.94,2.63-5.66,3.7-12.83,3.7-1.61,0-3.25,0-5-.09s-3.55-.1-5.33-.1c-6.79,0-14.42.71-19.54,6-4.08,4.19-6,10.54-5.72,19.4-.55,21.53.22,43.81,1,65.35,1.36,39.34,2.65,76.54-3.75,107.05C1900.46,1061.65,1895.83,1062.89,1892,1062.89Z" transform="translate(-31.44 -9.31)"/><path d="M1846.77,832.56a146.09,146.09,0,0,1,14.64,1c5.3.54,10.78,1.1,16,1.1a57.91,57.91,0,0,0,6.12-.3,102.46,102.46,0,0,0,11,.55c6.76,0,13.48-.54,20-1.06s12.36-1,18.27-1c8.14,0,14.76,1,20.56,3,3.89,13.66,2.49,18.51,1.24,20.19s-4.4,2.49-10.41,2.49c-1.57,0-3.19,0-4.9-.09s-3.6-.1-5.42-.1c-7.42,0-15.79.81-21.69,6.88-4.66,4.78-6.81,11.82-6.57,21.49-.55,21.6.22,43.89,1,65.45,1.33,38.51,2.59,75-3.38,104.84-4.34,1.86-8.08,2.8-11.15,2.8a8.86,8.86,0,0,1-7-2.83c-8.59-9.3-6.28-38.46-4.6-59.75,1.22-15.32,2.18-27.5.14-34.75-1.42-11-.63-25.9.14-40.33.79-14.87,1.54-28.91.18-40.11-1.82-15-7.73-23-17.57-23.71l-.43,0h-.25c-3.07.12-5.9.27-8.65.42-4.43.24-8.26.45-11.58.45-5.93,0-9.23-.7-10.4-2.19-1.37-1.75-2.23-6.85,1.18-21.09,2.72-2.33,7.09-3.43,13.59-3.43m0-6c-7.79,0-14.63,1.39-19,6.38-6.94,27.75-1.41,32.33,14.65,32.33,5.58,0,12.43-.55,20.47-.88,22.68,1.63,7.24,65.92,11.8,99.42,6,19-16.52,102.08,17.34,102.08,4.44,0,9.84-1.42,16.4-4.61,10.56-48.2,1.6-113.81,3.16-174.48-.55-20.1,10.42-22.37,22.26-22.37,3.45,0,7,.19,10.32.19,13.22,0,23.42-3,14.09-33.19-8.14-3.51-16.69-4.53-25.48-4.53-12.43,0-25.33,2.05-38.25,2.05a96.58,96.58,0,0,1-11-.59,50.26,50.26,0,0,1-6.11.34c-9.76,0-20.93-2.14-30.62-2.14Z" transform="translate(-31.44 -9.31)"/><path class="cls-1" d="M2308.51,1061.89c-5.65,0-10.09-1.39-12.51-3.91-1.72-1.81-2.48-4.2-2.34-7.34,0,0,0-4.35,0-4.35.31-34.79.59-67.66.26-101.22,1.52-14.39.69-30.78-.11-46.64-1.2-23.6-2.43-48,3.87-66.79a72.5,72.5,0,0,1,14.68-1.95c4.84,0,8,1,10.07,3.27,3.58,3.91,4.56,12.48,3.17,27.79-2.29,28.72-1.11,57.28,0,84.9,1.64,39.77,3.18,77.38-4.95,114.24A39.19,39.19,0,0,1,2308.51,1061.89Z" transform="translate(-31.44 -9.31)"/><path d="M2312.4,826.69v6h0c5.17,0,7,1.31,7.86,2.29,3.83,4.2,3.2,16.57,2.39,25.51v.06c-2.3,28.86-1.13,57.51,0,85.22,1.61,39,3.12,75.83-4.51,111.77a37,37,0,0,1-9.64,1.35c-4.76,0-8.52-1.09-10.34-3-.41-.43-1.67-1.74-1.51-5.12,0-.08,0-.15,0-.23l0-4.33c.31-34.72.59-67.51.26-101,1.52-14.59.69-31-.12-46.94-1.14-22.64-2.33-46,3.2-64.06a65.57,65.57,0,0,1,12.36-1.53v-6m0,0a81.93,81.93,0,0,0-17,2.37c-11.76,32.34-.62,79.87-4.48,115.87.35,35,0,69.88-.29,105.57-.5,10.82,8.44,14.39,17.84,14.39a41.17,41.17,0,0,0,14.77-2.76c14.63-64.08-.19-131.72,5.35-201.1,2.28-25.19-1.36-34.34-16.23-34.34Z" transform="translate(-31.44 -9.31)"/><path class="cls-1" d="M1425.4,295.73a23,23,0,0,1-9.6-2.18c-3.69-4.46-5.56-9-7.53-13.86-1.87-4.57-3.8-9.29-7.34-13.72-4-7-9.07-11.9-13.57-16.22-9-8.7-16.19-15.57-13.46-36a1.6,1.6,0,0,0,0-.23c.22-4,.14-8.07,0-12-.17-8-.35-16.17,2.57-19.15.58-.59,1.63-1.38,4-1.38,2.82,0,6.69,1.09,11.52,3.25a2,2,0,0,0,.22.09c41.9,15,44.23,55.51,43,99.3a2.83,2.83,0,0,0,.09.82c.84,3.36.52,6-.93,7.89-1.67,2.13-5,3.36-9,3.36Z" transform="translate(-31.44 -9.31)"/><path d="M1380.58,184c1.64,0,4.77.52,10.3,3,.14.07.28.12.43.18,18.51,6.61,29.92,18.36,35.91,37,5.74,17.84,5.62,40,5,59.41a5.59,5.59,0,0,0,.18,1.63c.41,1.67.68,3.95-.39,5.32s-3.57,2.21-6.66,2.21a20,20,0,0,1-7.71-1.62c-3.13-3.95-4.84-8.14-6.64-12.55-1.93-4.71-3.92-9.57-7.63-14.28-4.17-7.26-9.38-12.27-14-16.69-8.76-8.43-15.1-14.52-12.56-33.4,0-.15,0-.3,0-.46.24-4.1.15-8.24.06-12.25-.13-6.29-.32-14.9,1.71-17,.12-.12.47-.48,1.89-.48m0-6c-13.24,0-8.72,19-9.65,35.37-4.41,32.87,16.18,34.09,27.51,54.27,7.07,8.69,7.34,18.82,15.47,28.3a25.73,25.73,0,0,0,11.49,2.77c8.32,0,15.48-4.51,12.87-15,1.26-43.38-.52-86.35-44.94-102.21-5.46-2.44-9.61-3.52-12.75-3.52Z" transform="translate(-31.44 -9.31)"/><path class="cls-2" d="M1000.91,971.76a82.34,82.34,0,0,0-15.12-25.41c-6.79-7.63-13.89-15-21-22.35-16,33-54.08,106.65-69.41,136.23,29.69-8.09,57.55-21,85-34.69C1004,1013.82,1010.32,996.31,1000.91,971.76Z" transform="translate(-31.44 -9.31)"/><path class="cls-3" d="M877.33,722.08" transform="translate(-31.44 -9.31)"/><path class="cls-3" d="M844.81,586.59" transform="translate(-31.44 -9.31)"/><path class="cls-2" d="M845.39,1090.79c42-53.3,65.72-107,90.86-164l.13-.29q4.07-9.19,8.22-18.56c24.37-63.62,39.65-116.38,48.09-166,10.63-62.5,10-118.49-1.84-171.17l0-.14c-7.23-39.72-17.05-66.24-30.92-83.52C943.76,467,921.54,458.44,889.44,460l-.46,0-.46-.06c-20.44-2.8-37.47-4.16-52.08-4.16-55.4,0-83,19.31-105.38,73.77-1,4.2-3.92,9.39-7.23,15.4-3.86,7-10.31,18.67-8.79,22.77.08.21.25.66,1.26,1.08L732.11,573a.75.75,0,0,0,.16-.29C746.34,530,759.37,525,779.1,517.36c1.53-.59,3.07-1.18,4.65-1.81.87-.35.87-.35,25.9-2.3h.1c5-.38,9.68-.75,10.69-.84a53,53,0,0,1,9.2-.8c15.88,0,28.36,6.76,34.39,10.78,9.89,6.62,15.89,14.55,16.05,21.23,0,1.78-.42,10.71-13.51,11.31h-.18c-12.38,0-23.1-.33-32.56-.58-8.05-.21-15-.4-21.23-.4h0c-22,0-34.12,2.22-43.2,14.84l-.2.26a13.49,13.49,0,0,0-2.74,4.4c.76.46,3.55,1.68,12.09,1.68,7.16,0,15.82-.79,24.2-1.55,7.74-.7,15-1.37,20.7-1.37a34.75,34.75,0,0,1,7.55.65c6.85.45,13.07,5.77,17.1,10.16l.41.51c12.22,17.4,25,17.6,41.26,17.86,3.87.06,7.86.13,12,.45.65-.06,1.32-.08,2-.08,8.78,0,19.79,4.49,22.91,12.81,1.22,3.24,2.11,9.67-5.54,16.37l-.61.53-.75.31a13.49,13.49,0,0,1-5.36,1,39.25,39.25,0,0,1-6.3-.68c-3-.49-6.27-.92-8.59-.38l-.21.12c.13.75.37,1.84.53,2.52l.23,1.06c6.94,35.23-6.83,83.46-8.73,89.83l-.1,1.27-.33.76c-20.72,48-52.54,72.51-83.3,96.26-15.44,11.93-30,23.19-42.24,36.86l-.29.3c-12.51,11.88-23,27.65-33.07,42.9-6.1,9.19-12.39,18.68-19.12,27.32l-.75,1-1.12.51a13.09,13.09,0,0,1-5.44,1.18A15,15,0,0,1,692.86,926a15.13,15.13,0,0,1,.3-15.56l.43-.64.23-.24C704,898.66,708,891.35,707.55,884.3c-.44-7.57-6.11-16.11-15.11-27.42l-.42-.63c-6.63-11.55-25.95-28.49-43-43.43-27.57-24.18-41.79-37.24-38.16-46.91,2.49-6.6,11.19-6.6,14-6.6l1.57,0,.71,0,.66.22c20.82,6.68,61.88,50.76,82.92,75.82a67.69,67.69,0,0,1,10,12.74c2.62,4,4.59,7,7.53,8.73,31.24-29.54,54.2-49.25,71-63.68,20.25-17.38,30.41-26.11,33-33,2.17-5.77-1.56-11.83-9.72-25.11a436.71,436.71,0,0,1-23.77-43c-5.13-9.86-9.55-18.57-13.45-26.26C773.83,643,766.85,629.26,759,620.71c-12.92-12.81-27.69-17.73-40.73-22.07-11.77-3.92-21.93-7.3-27.94-15.63s-6.65-19.89-1.87-37.13c-5.23-2.43-13.06-7.12-23.34-14-1.54-1-3.18-2.13-5-3.41-.57,2-1.17,4.14-1.7,6-3.27,11.76-4.32,15-6,16.71l-.43.44-.52.33c-1.48.93-4.2,3.76-6.82,6.49-6.8,7.08-14.51,15.11-22.35,15.11a11.06,11.06,0,0,1-3.2-.47l-.4-.14c-5.64-2.28-8.87-5.68-9.58-10.12-1.48-9.12,8.78-17.81,17-24.8,1.73-1.46,3.36-2.85,4.45-3.89a6.38,6.38,0,0,1,2.55-3.26c5.23-4.12,7.23-15.74,8.83-25.08,1.89-11,3.53-20.48,11.44-20.48,4.06,0,7.94,3,13,10l.1.14c7,10.79,22.78,18.8,32.28,18.8,2.37,0,3.71-.52,4.18-1C733,465.77,753.09,438.66,816,434l.75,0c4.88-.35,10.42-.75,12.87-3.79,1.63-2,2.12-5.64,1.43-10.47-.17-1.2-.24-1.64-2.61-1.64h0c-5.48,0-14.89,3.86-24,7.59-10.39,4.26-20.19,8.28-27.56,8.28a16,16,0,0,1-3.57-.36c-1.71.56-4.11,2.25-6.26,3.76-4,2.84-8.22,5.77-12.93,5.77a10.44,10.44,0,0,1-4-.8l-.6-.25-.51-.4a53.87,53.87,0,0,1-13.24-14.33c-2.17-3.27-2.23-3.27-3.74-3.27-2.25,0-6.25.88-12.6,2.77l-.76.18-.34,0c-8.29.54-15.8-2.61-22.17-9.33-21.8-23-24.22-79.44-23.35-97.71a20.23,20.23,0,0,1,4.72-15.43c3-3.49,6.9-5.49,10.71-5.49,3.62,0,12.16,1.81,13.32,18.62a122.94,122.94,0,0,1,0,21.83c-.55,8-1,14.83,1.68,23a123.27,123.27,0,0,1,5,13.78c2.57,7.92,6.4,19.76,10.62,21.5a96.9,96.9,0,0,1,18.12-2.15c11.65,0,15.58,4.35,18.45,7.52,2.06,2.27,3.19,3.53,8.26,3.53a67.54,67.54,0,0,0,14.52-2.15c9-6.48,18.39-9.63,28.77-9.63.82,0,1.67,0,2.52.07,5.52-2.93,14.11-5.95,22.3-5.95.68,0,1.35,0,2,.06l.66,0,.64.22c10.28,3.49,18.88,5.26,25.56,5.26s11.26-1.69,14.11-5.17c7.77-9.48,3.34-31.76-.58-51.43-1-5.12-2-9.92-2.74-14.56-.66-4.3-3.52-10.28-8.06-16.87-15.24-15.93-12.32-34.38-9.5-52.23,1.28-8,2.6-16.38,2.12-24.25-1.55-27.08-4-44.51-7.46-53.29-2.55-6.43-4.74-6.43-7.28-6.43-.76,0-1.55,0-2.39.08-1,.05-2.06.1-3.16.1a20.1,20.1,0,0,1-16.15-7.41l-.77-.88-.3-1.12c-3-11.34,7.17-14.31,12.65-15.91,4-1.16,7.73-2.26,8.62-4.73.74-2,1.09-8.81-11.62-27.8-21.48-32.82-49.5-58.27-83.3-75.68-31.46-16.2-67.47-24.76-104.12-24.76A248.9,248.9,0,0,0,482.72,69.42c-29.55,24-52,57.73-65,97.41-12.24,37.38-15.79,78.61-10.28,119.24,3.74,22-10.4,36.1-24.06,49.75a172.63,172.63,0,0,0-13.46,14.51c-20.29,30.79-44.18,37.71-69.48,45-12,3.46-24.32,7-36.6,13.43l-.51.23c-52,20-96.88,50.15-133.51,89.68A353.31,353.31,0,0,0,53.3,629,378.39,378.39,0,0,0,36.85,789.59,371.26,371.26,0,0,0,55,869.35,361.17,361.17,0,0,0,91.1,944.18l.05.09c29,48.45,74.66,90.74,132,122.33,54.39,29.94,117.28,49.41,181.86,56.31a.86.86,0,0,0,.83-.33c7.71-9.45,29.18-23.78,54.69-36.51,27.18-13.56,51.54-21.65,65.18-21.65,13.82,0,16.16,8,16.53,11.51l.14,1.33-.53,1.22c-5.34,12.11-20.33,16.16-39.32,21.28-16.25,4.39-34.67,9.36-51.53,20.45-19.44,12.77-32.77,31.22-40.74,56.38l-.22.57c-11.3,24.72-13.57,43.08-6.95,56.12,5.69,11.21,18.1,18.63,37.94,22.7l.58.12.54.25c9.44,4.42,16.29,6.31,22.9,6.31,6.14,0,12.24-1.59,20.69-4.32l.93-.3,1,.06,5.76.46c4.45.37,8.59.71,12.18.71,10.44,0,16.69-2.65,21.83-17.15,8.36-27,17.69-42.55,31.2-52,12.82-9,28.93-11.93,49.32-15.62,3.15-.57,6.38-1.15,9.76-1.79,41-12.12,69.4-21.54,86.73-28.8,17.62-7.37,20.66-11.27,21.17-12.2-.33-.44-1.46-1.59-5-3.31-4.62-2.27-11.16-4.5-18.73-7.08-9.06-3.1-19.33-6.6-28.83-11.1-77.1-31.81-153.32-71.55-254.85-132.86l-.1-.06-12.52-8.18-.53-.34c-64.58-42.12-120.35-78.49-147.74-127.24-22.81-38.73-25-93.79-5.62-143.66,18.21-46.94,52.68-81.25,94.59-94.14A201.81,201.81,0,0,1,409.76,593c54.57,0,103.42,25.47,134,69.89,32.8,47.62,39.54,109.84,18,166.48-3.89,15.72-17,34.65-27.46,34.65a8.68,8.68,0,0,1-6.81-3.18c-3.41-4.05-4.07-11.42-2.06-23.19l.14-.81.38-.71c25.8-48.11,26.26-98.45,1.34-145.58a131.8,131.8,0,0,0-52.11-51.75,144,144,0,0,0-68.85-17.29c-35.83,0-69.32,12.66-94.29,35.65C284,683,268.77,720.05,268,764.3v.14c-3.72,77.33,66.41,123.44,128.3,164.13l.25.17c7.9,5.19,15.37,10.1,22.71,15.09,95.7,58.41,206.78,124.11,313,163.85l.32.13c18,8.13,36.22,12.43,52.76,12.43,25.48,0,45.65-9.87,59.94-29.32ZM754,275.2a137.31,137.31,0,0,0,13.9-7.26c9.44-5.37,19.18-10.92,29.89-12.65l.46-.07h.46c.86,0,1.8,0,2.78,0,3,0,6.23-.09,9.61-.2s6.91-.21,10.31-.21c11.34,0,22.32,1.1,25.87,9.09,3.15,7.09-1,16.45-13.45,30.31-7.4,13.52-15.39,19.82-25.11,19.82-8.11,0-15.49-4.48-23.31-9.23s-15.6-9.48-23.85-9.48a21.35,21.35,0,0,0-4.58.5l-.69.15-.71,0a10.21,10.21,0,0,1-9.73-9.07C745.31,282.49,747.65,277.19,754,275.2Zm-323.87,941-.67,1.25-1.22.72c-3.6,2.12-6.63,3.15-9.26,3.15a8.33,8.33,0,0,1-7.18-3.83,12.46,12.46,0,0,1-1.69-6.86c0-9.64,7-27.15,12.95-40.14,3.77-8.28,7.18-15,8.88-18.24a65.07,65.07,0,0,1,4.65-8.22c2.69-5.32,10.56-12.91,17.09-18.28,7.36-6,17.63-13.27,24.72-13.27a8.3,8.3,0,0,1,6.74,3.09c2,2.59,2.36,6.26,1.08,11.21a11,11,0,0,1-5.37,6.83c-18.18,10-28.19,22.19-36.93,44.88l-.27.58c-2.39,4.39-4.17,10.41-6.06,16.79C435.47,1202.82,433.32,1210.05,430.08,1216.16Zm32.32,16a14.18,14.18,0,0,1-3.92,9.83,12.23,12.23,0,0,1-8.65,3.94,9.13,9.13,0,0,1-6.94-3.08c-2.35-2.65-3.25-6.49-2.68-11.42,1.39-17.42,14.61-43,26.52-61.13,5.85-8.9,26-38,39.44-38,2,0,8.5.75,9.6,10.34l.25,2.13-1.38,1.65q-2.92,3.49-5.76,6.85l-.28.33C486.18,1180.23,468.47,1201.23,462.4,1232.16Zm90.38-82.48h0l.85.12.76.4c4.49,2.36,5.42,5.79,5.57,7.63.61,7.43-8.38,14.25-17.9,21.46-4,3-8.48,6.43-9.93,8.39l-.49.56a100.44,100.44,0,0,0-24.52,41.43c-1.8,10.62-7.66,14.41-12.56,14.41a10.49,10.49,0,0,1-8.39-4.38c-2.58-3.44-3.29-8.13-2-12.89,2.34-12.37,12.74-31.19,26.52-48,9-10.94,26.07-29.28,39.95-29.28A14.56,14.56,0,0,1,552.78,1149.68Zm16.89-795.8c-11.38-19.47-18.16-41.67-19.65-54.08l-.11-.79,0-.55c4.57-58.65,39.86-65,54.83-65,17.53,0,33.61,8.13,39,16,3.14,4.55,2.72,8.33,1.82,10.7l-.31.67c-2.89,5.14-7.11,7.74-12.55,7.74-4.39,0-9-1.67-14.43-3.61-2.57-.93-5.23-1.89-8.1-2.76a25.08,25.08,0,0,0-3.67-.27c-14.5,0-27.28,12.22-27.92,26.68v.15c-2.18,25.93,17.5,56.8,31.66,69.79,14.55,5,21.31,10.22,21.91,16.86.47,5.19-2.88,9.68-10.24,13.75l-.92.5-1,.1c-1.08.1-2.17.15-3.24.15C595.25,389.92,579.28,370.32,569.67,353.88Z" transform="translate(-31.44 -9.31)"/><path class="cls-4" d="M865.47,729.74c-20.08,7.77-95.38-132.09-83.84-130.9C805.7,594.93,870.08,619,878,642,889,674,872,714,865.47,729.74Z" transform="translate(-31.44 -9.31)"/></svg>