<?xml version="1.0" encoding="utf-8"?>
<!-- Generator: Adobe Illustrator 24.0.1, SVG Export Plug-In . SVG Version: 6.00 Build 0)  -->
<svg version="1.1" id="Camada_1" xmlns="http://www.w3.org/2000/svg" xmlns:xlink="http://www.w3.org/1999/xlink" x="0px" y="0px"
	 viewBox="0 0 81.46 64" style="enable-background:new 0 0 81.46 64;" xml:space="preserve">
<style type="text/css">
	.st0{fill:#FCFCFC;}
</style>
<title></title>
<g id="Crown">
	<path class="st0" d="M5.05,10.69c1.08-1.18,1-3.03-0.19-4.1c-1.18-1.08-3.03-1-4.1,0.19s-1,3.03,0.19,4.1
		c0.54,0.48,1.24,0.76,1.96,0.76C3.72,11.64,4.5,11.29,5.05,10.69z"/>
	<path class="st0" d="M38.76,5.03c0.13,0.13,0.28,0.23,0.44,0.33c0.23,0.15,0.47,0.25,0.73,0.32c0.65,0.19,1.35,0.13,1.98-0.13
		c0.12-0.06,0.23-0.12,0.35-0.19c0.16-0.1,0.31-0.2,0.44-0.33c0.61-0.54,0.95-1.31,0.95-2.12c0-1.6-1.31-2.91-2.91-2.91
		s-2.91,1.31-2.91,2.91c0,0.8,0.32,1.56,0.9,2.09C38.74,5,38.75,5.02,38.76,5.03z"/>
	<path class="st0" d="M78.55,5.82c-1.6,0-2.91,1.29-2.91,2.89c0,0.73,0.26,1.43,0.76,1.96l0.01,0.01c0.16,0.17,0.33,0.33,0.54,0.47
		c0.13,0.09,0.28,0.16,0.42,0.23c0.38,0.16,0.77,0.25,1.18,0.25c1.6,0,2.91-1.31,2.91-2.91S80.15,5.82,78.55,5.82z"/>
	<path class="st0" d="M26.42,11.85l-6.56-5.69c-0.31-0.26-0.7-0.38-1.09-0.35c-0.39,0.04-0.76,0.25-1,0.57l-4.52,5.88l6.89,6.33
		L26.42,11.85z"/>
	<path class="st0" d="M68.22,12.26L63.7,6.39c-0.25-0.32-0.61-0.52-1-0.57c-0.39-0.03-0.79,0.09-1.09,0.35l-6.56,5.69l6.28,6.73
		L68.22,12.26z"/>
	<path class="st0" d="M1.54,14.37l2.72,37.99h72.93l2.72-37.99c-0.17,0.04-0.35,0.09-0.52,0.1c-0.04,0.01-0.07,0.03-0.12,0.03h-0.04
		c-0.23,0.03-0.45,0.04-0.68,0.04c-1.63,0-3.2-0.7-4.29-1.91c-0.15-0.16-0.29-0.33-0.42-0.51c-0.03-0.06-0.07-0.12-0.12-0.17
		c0-0.01,0-0.01-0.01-0.01c-0.09-0.16-0.19-0.31-0.28-0.48c-0.01,0-0.01,0-0.01-0.01L61.16,22.68L45.63,6.04
		c-0.01,0.03-0.04,0.06-0.06,0.09c-0.1,0.15-0.2,0.29-0.33,0.42c-0.16,0.23-0.35,0.44-0.57,0.63c-1.06,1-2.47,1.57-3.94,1.56
		c-1.47,0-2.89-0.55-3.97-1.57c-0.22-0.19-0.41-0.39-0.57-0.63c-0.13-0.15-0.23-0.29-0.33-0.45c-0.01-0.01-0.01-0.03-0.03-0.04
		L20.29,22.68L8.04,11.43c-0.23,0.44-0.52,0.84-0.86,1.22c-1.09,1.21-2.65,1.89-4.28,1.89C2.44,14.55,1.99,14.49,1.54,14.37z
		 M64,33.45c3.21,0,5.82,2.6,5.82,5.82c0,3.21-2.6,5.82-5.82,5.82c-3.21,0-5.82-2.6-5.82-5.82C58.18,36.06,60.79,33.45,64,33.45
		L64,33.45z M30.65,34.66c0.23-0.76,0.87-1.31,1.64-1.45l4.38-0.86l2.17-3.9c0.58-1.05,1.91-1.41,2.95-0.83
		c0.35,0.19,0.63,0.48,0.83,0.83l2.17,3.9l4.38,0.86c0.77,0.15,1.41,0.7,1.64,1.45c0.23,0.74,0.06,1.57-0.48,2.14l-3.04,3.27
		l0.54,4.42c0.1,0.79-0.23,1.54-0.87,2.01c-0.36,0.28-0.81,0.42-1.27,0.42c-0.32,0-0.63-0.07-0.92-0.2l-4.04-1.88l-4.04,1.88
		c-1.09,0.49-2.37,0.03-2.87-1.06c-0.17-0.36-0.23-0.77-0.19-1.16l0.54-4.42l-3.04-3.27C30.59,36.23,30.42,35.4,30.65,34.66z
		 M17.46,33.45c3.21,0,5.82,2.6,5.82,5.82c0,3.21-2.6,5.82-5.82,5.82s-5.82-2.6-5.82-5.82C11.64,36.06,14.24,33.45,17.46,33.45
		L17.46,33.45z"/>
	<path class="st0" d="M77.66,55.27H3.8l-2.27,6.81c-0.15,0.45-0.07,0.93,0.2,1.31C1.99,63.77,2.44,64,2.91,64h75.64
		c0.47,0,0.92-0.23,1.18-0.61c0.28-0.38,0.35-0.86,0.2-1.31L77.66,55.27z"/>
</g>
</svg>
