<?xml version="1.0" encoding="utf-8"?>
<!-- Generator: Adobe Illustrator 24.0.1, SVG Export Plug-In . SVG Version: 6.00 Build 0)  -->
<svg version="1.1" id="Camada_1" xmlns="http://www.w3.org/2000/svg" xmlns:xlink="http://www.w3.org/1999/xlink" x="0px" y="0px"
	 viewBox="0 0 81.6 64" style="enable-background:new 0 0 81.6 64;" xml:space="preserve">
<style type="text/css">
	.st0{fill:#072D2C;}
</style>
<title></title>
<g id="Crown">
	<g>
		<path class="st0" d="M3,7.3c0.3,0,0.7,0.1,0.9,0.4c0.3,0.3,0.4,0.6,0.5,1c0,0.4-0.1,0.7-0.4,1c-0.3,0.3-0.6,0.5-1,0.5
			c-0.4,0-0.7-0.1-1-0.4C1.5,9.3,1.4,8.4,2,7.8C2.2,7.5,2.6,7.3,3,7.3 M3,5.8c-0.8,0-1.6,0.3-2.1,0.9c-1.1,1.2-1,3,0.2,4.1
			c0.5,0.5,1.2,0.8,2,0.8c0.8,0,1.6-0.3,2.1-0.9c1.1-1.2,1-3-0.2-4.1C4.4,6.1,3.7,5.8,3,5.8L3,5.8z"/>
	</g>
	<g>
		<path class="st0" d="M40.8,1.5c0.8,0,1.4,0.6,1.4,1.4c0,0.4-0.2,0.7-0.4,1C41.7,4,41.7,4,41.6,4.1c-0.1,0-0.1,0.1-0.2,0.1
			c-0.2,0.1-0.4,0.1-0.5,0.1c-0.1,0-0.3,0-0.4-0.1c-0.1,0-0.2-0.1-0.3-0.2c0,0,0,0,0,0C40,4,39.9,4,39.9,4c0,0,0,0-0.1-0.1l0,0
			c-0.3-0.2-0.4-0.6-0.4-1C39.4,2.1,40.1,1.5,40.8,1.5 M40.8,0c-1.6,0-2.9,1.3-2.9,2.9c0,0.8,0.3,1.5,0.9,2.1c0,0,0,0,0,0
			c0.1,0.1,0.3,0.2,0.4,0.3c0.2,0.1,0.5,0.3,0.7,0.3c0.3,0.1,0.5,0.1,0.8,0.1c0.4,0,0.8-0.1,1.2-0.2c0.1-0.1,0.2-0.1,0.4-0.2
			c0.2-0.1,0.3-0.2,0.4-0.3c0.6-0.5,1-1.3,1-2.1C43.7,1.3,42.4,0,40.8,0L40.8,0z"/>
	</g>
	<g>
		<path class="st0" d="M78.6,7.3C79.4,7.3,80,8,80,8.7s-0.6,1.4-1.4,1.4c-0.2,0-0.4,0-0.6-0.1c-0.1,0-0.1-0.1-0.2-0.1
			c-0.1-0.1-0.2-0.1-0.3-0.2c0,0,0,0,0,0c-0.2-0.3-0.4-0.6-0.4-0.9C77.2,7.9,77.9,7.3,78.6,7.3 M78.6,5.8c-1.6,0-2.9,1.3-2.9,2.9
			c0,0.7,0.3,1.4,0.8,2l0,0c0.2,0.2,0.3,0.3,0.5,0.5c0.1,0.1,0.3,0.2,0.4,0.2c0.4,0.2,0.8,0.3,1.2,0.3c1.6,0,2.9-1.3,2.9-2.9
			S80.2,5.8,78.6,5.8L78.6,5.8z"/>
	</g>
	<g>
		<path class="st0" d="M19,7.3l5.3,4.6l-4.2,4.5l-4.8-4.4L19,7.3 M19,5.8c0,0-0.1,0-0.1,0c-0.4,0-0.8,0.3-1,0.6l-4.5,5.9l6.9,6.3
			l6.3-6.7l-6.6-5.7C19.7,5.9,19.3,5.8,19,5.8L19,5.8z"/>
	</g>
	<g>
		<path class="st0" d="M62.7,7.3L62.7,7.3L62.7,7.3 M62.6,7.3l3.6,4.7l-4.8,4.4L57.3,12L62.6,7.3 M62.6,5.8c-0.3,0-0.7,0.1-0.9,0.4
			l-6.6,5.7l6.3,6.7l6.9-6.3l-4.5-5.9c-0.2-0.3-0.6-0.5-1-0.6C62.7,5.8,62.7,5.8,62.6,5.8L62.6,5.8z"/>
	</g>
	<g>
		<path class="st0" d="M45.8,8.3l14.4,15.4c0.3,0.3,0.7,0.5,1.1,0.5c0.4,0,0.7-0.1,1-0.4l11-10.1c1.3,1.4,3.2,2.3,5.1,2.3l-2.5,34.8
			H5.7L3.3,16C5.2,16,7,15.1,8.4,13.7l11,10.1c0.3,0.3,0.7,0.4,1,0.4c0.4,0,0.8-0.2,1.1-0.5L35.9,8.3c1.3,1.2,3.1,1.9,4.9,1.9h0.1
			C42.7,10.2,44.5,9.5,45.8,8.3C45.8,8.3,45.8,8.3,45.8,8.3 M35.8,31l-3.7,0.7c-1.3,0.2-2.4,1.2-2.8,2.5c-0.4,1.3-0.1,2.7,0.8,3.6
			l2.6,2.8l-0.5,3.7c-0.1,0.7,0,1.4,0.3,2c0.6,1.3,1.9,2.1,3.3,2.1c0.5,0,1-0.1,1.5-0.3l3.4-1.6l3.4,1.6c0.5,0.2,1,0.3,1.5,0.3
			c0.8,0,1.5-0.2,2.2-0.7c1.1-0.8,1.6-2.1,1.5-3.4L49,40.6l2.6-2.8c0.9-1,1.2-2.4,0.8-3.6c-0.4-1.3-1.5-2.2-2.8-2.5L45.9,31L44,27.7
			c-0.3-0.6-0.8-1.1-1.4-1.4c-0.5-0.3-1.2-0.5-1.8-0.5c-1.3,0-2.6,0.7-3.2,1.9L35.8,31 M64.1,46.6c4,0,7.3-3.3,7.3-7.3
			S68.1,32,64.1,32c-4,0-7.3,3.3-7.3,7.3C56.8,43.3,60.1,46.6,64.1,46.6 M17.5,46.6c4,0,7.3-3.3,7.3-7.3S21.6,32,17.5,32
			c-4,0-7.3,3.3-7.3,7.3C10.2,43.3,13.5,46.6,17.5,46.6 M45.7,6C45.7,6.1,45.7,6.1,45.7,6c-0.2,0.2-0.3,0.4-0.4,0.5
			C45.2,6.8,45,7,44.8,7.2c-1.1,1-2.5,1.6-3.9,1.6c0,0,0,0,0,0c0,0,0,0,0,0c-1.5,0-2.9-0.6-3.9-1.6c-0.2-0.2-0.4-0.4-0.6-0.6
			c-0.1-0.1-0.2-0.3-0.3-0.5c0,0,0,0,0,0L20.4,22.7L8.1,11.4c-0.2,0.4-0.5,0.9-0.9,1.2c-1.1,1.2-2.6,1.9-4.3,1.9
			c-0.5,0-0.9-0.1-1.4-0.2l2.7,38h72.9l2.7-38c-0.2,0.1-0.3,0.1-0.5,0.1c0,0-0.1,0-0.1,0h0c-0.2,0-0.5,0-0.7,0
			c-1.6,0-3.2-0.7-4.3-1.9c-0.2-0.2-0.3-0.3-0.4-0.5c0-0.1-0.1-0.1-0.1-0.2c0,0,0,0,0,0c-0.1-0.2-0.2-0.3-0.3-0.5c0,0,0,0,0,0
			L61.3,22.7L45.7,6L45.7,6z M35.9,46.9c-0.8,0-1.6-0.5-2-1.3c-0.2-0.4-0.2-0.8-0.2-1.2l0.5-4.4l-3-3.3c-0.6-0.6-0.7-1.4-0.5-2.1
			c0.2-0.8,0.9-1.3,1.6-1.5l4.4-0.9l2.2-3.9c0.4-0.7,1.1-1.1,1.9-1.1c0.4,0,0.7,0.1,1.1,0.3c0.3,0.2,0.6,0.5,0.8,0.8l2.2,3.9
			l4.4,0.9c0.8,0.2,1.4,0.7,1.6,1.5c0.2,0.8,0,1.6-0.5,2.1l-3,3.3l0.5,4.4c0.1,0.8-0.2,1.5-0.9,2c-0.4,0.3-0.8,0.4-1.3,0.4
			c-0.3,0-0.6-0.1-0.9-0.2l-4-1.9l-4,1.9C36.5,46.9,36.2,46.9,35.9,46.9L35.9,46.9z M64.1,45.1c-3.2,0-5.8-2.6-5.8-5.8
			c0-3.2,2.6-5.8,5.8-5.8c3.2,0,5.8,2.6,5.8,5.8C69.9,42.5,67.3,45.1,64.1,45.1L64.1,45.1z M17.5,45.1c-3.2,0-5.8-2.6-5.8-5.8
			c0-3.2,2.6-5.8,5.8-5.8c3.2,0,5.8,2.6,5.8,5.8C23.4,42.5,20.8,45.1,17.5,45.1L17.5,45.1z"/>
	</g>
	<g>
		<path class="st0" d="M76.7,56.8l1.9,5.7l-75.5,0L5,56.8H76.7 M77.8,55.3H3.9l-2.3,6.8c-0.1,0.4-0.1,0.9,0.2,1.3
			C2.1,63.8,2.5,64,3,64h75.6c0.5,0,0.9-0.2,1.2-0.6c0.3-0.4,0.3-0.9,0.2-1.3L77.8,55.3L77.8,55.3z"/>
	</g>
</g>
</svg>
