<?xml version="1.0" encoding="utf-8"?>
<!-- Generator: Adobe Illustrator 24.0.1, SVG Export Plug-In . SVG Version: 6.00 Build 0)  -->
<svg version="1.1" id="Camada_1" xmlns="http://www.w3.org/2000/svg" xmlns:xlink="http://www.w3.org/1999/xlink" x="0px" y="0px"
	 viewBox="0 0 1080 1080" style="enable-background:new 0 0 1080 1080;" xml:space="preserve">
<g>
	<path d="M540,0C241.8,0,0,241.8,0,540s241.8,540,540,540s540-241.8,540-540S838.2,0,540,0z M875.3,786.9c0,6.6-5.4,12-12,12H583.1
		h-75H216.7c-6.6,0-12-5.4-12-12v-81.4c0-6.6,5.4-12,12-12h291.4h71.6h283.6c6.6,0,12,5.4,12,12V786.9z M875.3,599.6
		c0,6.6-5.4,12-12,12H216.7c-6.6,0-12-5.4-12-12v-81.4c0-6.6,5.4-12,12-12h646.6c6.6,0,12,5.4,12,12V599.6z M875.3,412.4
		c0,6.6-5.4,12-12,12H567.2h-50H216.7c-6.6,0-12-5.4-12-12V331c0-6.6,5.4-12,12-12h306.2h36.4h304c6.6,0,12,5.4,12,12V412.4z"/>
</g>
</svg>
