<?xml version="1.0" encoding="utf-8"?>
<!-- Generator: Adobe Illustrator 24.0.1, SVG Export Plug-In . SVG Version: 6.00 Build 0)  -->
<svg version="1.1" id="Camada_1" xmlns="http://www.w3.org/2000/svg" xmlns:xlink="http://www.w3.org/1999/xlink" x="0px" y="0px"
	 viewBox="0 0 1080 1080" style="enable-background:new 0 0 1080 1080;" xml:space="preserve">
<g>
	<path d="M540,0C241.8,0,0,241.8,0,540s241.8,540,540,540s540-241.8,540-540S838.2,0,540,0z M782.1,857.2c-3.8,3.7-6.4,6-12,12
		L542.7,643l-3.5,0.4L303,869.2c-4.4-5.3-10.4-7.7-12-12l-71.1-70.3c6.2-7.5,6.2-7.5,12-12l208.9-223.2h195l209.7,216.8
		c1.7,3.4,6.7,5.5,12,12L782.1,857.2z M205,611.1c0,0.3,0.2,0.5-0.1,0.5h-0.1c-0.3,0-0.1-0.2-0.1-0.5V506.7c0-0.3-0.3-0.5,0-0.5h0.2
		c0.3,0,0,0.2,0,0.5V611.1z M857.5,333.5c-6.2,4.7-5.2,6.4-12,12L635.8,551.7h-195l-201-219.7c-4.4-4.4-7.3-6.9-12-12l72.8-65.8
		c5.2-5.9,5.2-5.9,12-12l224.7,214.3l4.6,0.2l235.1-220.5c4,4.3,7.3,7.7,12,12L857.5,333.5z"/>
</g>
</svg>
