<svg id="Camada_1" data-name="Camada 1" xmlns="http://www.w3.org/2000/svg" viewBox="0 0 640 512"><defs><style>.cls-1{fill:#072d2c;}</style></defs><title>Avancado-Icon-L</title><path class="cls-1" d="M320,15a32.84,32.84,0,0,1,20.77,58.41,15,15,0,0,0-3.49,19L418.77,235a47,47,0,0,0,64.94,17l72.4-43.4A15,15,0,0,0,562,189.54,31.82,31.82,0,0,1,559,176a33,33,0,1,1,33,33,37.41,37.41,0,0,1-5.33-.61,14.78,14.78,0,0,0-2.38-.19,15,15,0,0,0-14,9.73L501.61,401H138.4L69.74,217.93a15,15,0,0,0-14-9.73,14.78,14.78,0,0,0-2.38.19A37.41,37.41,0,0,1,48,209a33.37,33.37,0,1,1,30-19.36,15,15,0,0,0,6,19l72.29,43.4a47,47,0,0,0,64.95-17l81.5-142.6a15,15,0,0,0-3.49-19A32.84,32.84,0,0,1,320,15M528,463a1.06,1.06,0,0,1,1,1v32a1.06,1.06,0,0,1-1,1H112a1.06,1.06,0,0,1-1-1V464a1.06,1.06,0,0,1,1-1H528M320,0a47.85,47.85,0,0,0-30.3,85L208.2,227.6A31.95,31.95,0,0,1,164,239.2L91.7,195.8A48,48,0,1,0,48,224a49,49,0,0,0,7.7-.8L128,416H512l72.3-192.8a49,49,0,0,0,7.7.8,48,48,0,1,0-48-48,47,47,0,0,0,4.4,19.8L476,239.2a31.95,31.95,0,0,1-44.2-11.6L350.3,85A47.85,47.85,0,0,0,320,0ZM528,448H112a16,16,0,0,0-16,16v32a16,16,0,0,0,16,16H528a16,16,0,0,0,16-16V464a16,16,0,0,0-16-16Z"/></svg>