<?xml version="1.0" encoding="utf-8"?>
<!-- Generator: Adobe Illustrator 24.0.1, SVG Export Plug-In . SVG Version: 6.00 Build 0)  -->
<svg version="1.1" id="Camada_1" xmlns="http://www.w3.org/2000/svg" xmlns:xlink="http://www.w3.org/1999/xlink" x="0px" y="0px"
	 viewBox="0 0 24 24" style="enable-background:new 0 0 24 24;" xml:space="preserve">
<style type="text/css">
	.st0{fill:#FCFCFC;}
</style>
<title></title>
<path class="st0" d="M21.5,16.5c0-2.2-1.8-4-4-4H17V12c0-0.6-0.4-1-1-1H4c-0.6,0-1,0.4-1,1v9.5C3,22.9,4.1,24,5.5,24h9
	c1.4,0,2.5-1.1,2.5-2.5v-1h0.5C19.7,20.5,21.5,18.7,21.5,16.5z M17.5,18.5h-0.3c-0.1,0-0.2-0.1-0.3-0.2c0,0,0,0,0,0v-3.5
	c0-0.1,0.1-0.3,0.3-0.3h0.3c1.1,0,2,0.9,2,2S18.6,18.5,17.5,18.5z"/>
<path class="st0" d="M5.6,2.9c0.1-0.1,0.2-0.2,0.1-0.3c0,0,0-0.1-0.1-0.1L3.3,0.9C3.1,0.8,2.8,0.8,2.6,1.1C2.6,1.2,2.5,1.3,2.5,1.4
	L3,3.9C3,4,3,4.1,3.1,4.1c0.1,0,0.2,0,0.2,0L5.6,2.9z"/>
<path class="st0" d="M3.6,5.1C3.5,5.2,3.5,5.3,3.5,5.4l2.2,4.3C5.9,9.9,6,10,6.2,10h3c0.3,0,0.5-0.2,0.5-0.5c0-0.1,0-0.2-0.1-0.2
	l-3-5.5C6.6,3.6,6.4,3.6,6.3,3.7L3.6,5.1z"/>
<path class="st0" d="M13.5,7.3L13.5,7.3c-0.2-0.1-0.4-0.2-0.6-0.3c-0.1-0.1-0.3,0-0.4,0.1c0,0,0,0,0,0l-1.2,2.2
	c-0.1,0.2,0,0.5,0.2,0.7c0.1,0,0.2,0.1,0.2,0.1h1.8c0.2,0,0.4-0.1,0.5-0.3l0.7-1.8c0-0.1,0-0.3-0.1-0.3c0,0,0,0-0.1,0
	c-0.2,0-0.5-0.1-0.7-0.2C13.7,7.4,13.6,7.3,13.5,7.3z"/>
<path class="st0" d="M17,2.8c-0.3-1.4-1.4-2.5-2.8-2.8c-0.3-0.1-0.5,0.1-0.6,0.4c0,0.1,0,0.3,0.1,0.4c0.5,0.8,0.2,1.3-0.4,2
	c-0.2,0.2-0.4,0.5-0.5,0.8c-0.5,1,0,2.2,1,2.7c0.1,0,0.1,0.1,0.2,0.1c0.7,0.4,1.6,0.3,2.2-0.3C17,5.2,17.4,4,17,2.8z"/>
</svg>
