<?xml version="1.0" encoding="utf-8"?>
<!-- Generator: Adobe Illustrator 24.0.1, SVG Export Plug-In . SVG Version: 6.00 Build 0)  -->
<svg version="1.1" id="Camada_1" xmlns="http://www.w3.org/2000/svg" xmlns:xlink="http://www.w3.org/1999/xlink" x="0px" y="0px"
	 viewBox="0 0 81.63 64" style="enable-background:new 0 0 81.63 64;" xml:space="preserve">
<style type="text/css">
	.st0{fill:#072D2C;}
</style>
<title></title>
<g id="Crown">
	<path class="st0" d="M5.14,10.69c1.08-1.18,1-3.02-0.19-4.1c-1.18-1.08-3.02-1-4.1,0.19s-1,3.02,0.19,4.1
		c0.54,0.49,1.24,0.76,1.96,0.76C3.81,11.64,4.59,11.29,5.14,10.69z"/>
	<path class="st0" d="M38.85,5.03c0.13,0.13,0.28,0.24,0.44,0.33c0.23,0.14,0.47,0.25,0.73,0.32c0.66,0.18,1.35,0.14,1.98-0.13
		c0.12-0.06,0.23-0.12,0.35-0.19c0.16-0.09,0.3-0.21,0.44-0.33c0.6-0.54,0.95-1.31,0.95-2.12c0-1.61-1.3-2.91-2.91-2.91
		s-2.91,1.3-2.91,2.91c0,0.79,0.32,1.55,0.9,2.09C38.82,5,38.84,5.02,38.85,5.03z"/>
	<path class="st0" d="M78.63,5.82c-1.6,0-2.91,1.29-2.91,2.9c0,0.72,0.27,1.42,0.76,1.96l0.01,0.01c0.16,0.18,0.34,0.33,0.54,0.47
		c0.14,0.09,0.28,0.16,0.42,0.23c0.37,0.16,0.77,0.25,1.18,0.25c1.61,0,2.91-1.3,2.91-2.91S80.24,5.82,78.63,5.82z"/>
	<path class="st0" d="M26.5,11.85l-6.56-5.69c-0.3-0.26-0.7-0.38-1.09-0.35c-0.4,0.04-0.76,0.25-1,0.57l-4.52,5.88l6.89,6.33
		L26.5,11.85z"/>
	<path class="st0" d="M68.31,12.26l-4.52-5.88c-0.24-0.32-0.6-0.53-1-0.57c-0.4-0.04-0.79,0.09-1.09,0.35l-6.56,5.69l6.28,6.73
		L68.31,12.26z"/>
	<path class="st0" d="M1.63,14.37l2.72,37.99h72.93L80,14.37c-0.17,0.05-0.35,0.08-0.52,0.1c-0.04,0.02-0.08,0.03-0.12,0.03h-0.04
		c-0.23,0.03-0.46,0.04-0.68,0.04c-1.64,0-3.19-0.69-4.29-1.91c-0.15-0.16-0.29-0.33-0.42-0.51c-0.03-0.06-0.07-0.12-0.12-0.17
		c0-0.01-0.01-0.01-0.01-0.01c-0.09-0.16-0.19-0.31-0.28-0.48c-0.01,0-0.01-0.01-0.01-0.01L61.25,22.68L45.72,6.04
		c-0.01,0.03-0.04,0.06-0.06,0.09c-0.1,0.15-0.21,0.29-0.33,0.42c-0.17,0.23-0.36,0.44-0.57,0.63c-1.06,1.01-2.48,1.57-3.94,1.56
		c-1.48,0.01-2.9-0.56-3.97-1.57c-0.21-0.19-0.4-0.4-0.57-0.63c-0.12-0.14-0.24-0.29-0.33-0.45c-0.01-0.01-0.01-0.03-0.03-0.04
		L20.38,22.68L8.13,11.43c-0.24,0.44-0.53,0.85-0.86,1.22C6.18,13.86,4.63,14.55,3,14.55C2.54,14.55,2.08,14.49,1.63,14.37z
		 M64.09,33.45c3.21,0,5.82,2.6,5.82,5.82c0,3.21-2.6,5.82-5.82,5.82c-3.21,0-5.82-2.6-5.82-5.82
		C58.27,36.06,60.87,33.46,64.09,33.45C64.09,33.45,64.09,33.45,64.09,33.45z M30.74,34.66c0.24-0.75,0.87-1.31,1.64-1.45l4.38-0.86
		l2.17-3.9c0.59-1.04,1.91-1.41,2.96-0.83c0.35,0.19,0.63,0.48,0.83,0.83l2.17,3.9l4.38,0.86c0.77,0.15,1.4,0.71,1.64,1.45
		c0.24,0.75,0.05,1.56-0.48,2.14l-3.04,3.27l0.54,4.42c0.1,0.78-0.24,1.55-0.87,2.01c-0.37,0.27-0.81,0.42-1.27,0.42
		c-0.32,0-0.63-0.07-0.92-0.2l-4.04-1.88l-4.04,1.88c-1.09,0.5-2.37,0.02-2.87-1.06c-0.17-0.36-0.23-0.77-0.18-1.16l0.54-4.42
		l-3.04-3.27C30.68,36.23,30.5,35.41,30.74,34.66z M17.54,33.45c3.21,0,5.82,2.6,5.82,5.82c0,3.21-2.6,5.82-5.82,5.82
		s-5.82-2.6-5.82-5.82C11.72,36.06,14.33,33.46,17.54,33.45C17.54,33.45,17.54,33.45,17.54,33.45z"/>
	<path class="st0" d="M77.75,55.27H3.88l-2.27,6.81c-0.15,0.44-0.07,0.93,0.2,1.31C2.09,63.77,2.53,64,3,64h75.64
		c0.47,0,0.91-0.23,1.18-0.61c0.28-0.38,0.35-0.87,0.2-1.31L77.75,55.27z"/>
</g>
</svg>
